<?xml version="1.0" encoding="UTF-8" standalone="no"?>
<svg
   width="116.58"
   height="44.106"
   viewBox="0 0 116.58 44.106"
   class="d-lg-block d-none"
   version="1.1"
   id="svg2"
   sodipodi:docname="logo2.svg"
   xml:space="preserve"
   inkscape:version="1.3.1 (9b9bdc1480, 2023-11-25, custom)"
   xmlns:inkscape="http://www.inkscape.org/namespaces/inkscape"
   xmlns:sodipodi="http://sodipodi.sourceforge.net/DTD/sodipodi-0.dtd"
   xmlns="http://www.w3.org/2000/svg"
   xmlns:svg="http://www.w3.org/2000/svg"><defs
     id="defs2" /><sodipodi:namedview
     id="namedview2"
     pagecolor="#ffffff"
     bordercolor="#000000"
     borderopacity="0.25"
     inkscape:showpageshadow="2"
     inkscape:pageopacity="0.0"
     inkscape:pagecheckerboard="0"
     inkscape:deskcolor="#d1d1d1"
     inkscape:zoom="8.285365"
     inkscape:cx="58.77834"
     inkscape:cy="17.742127"
     inkscape:window-width="1920"
     inkscape:window-height="1011"
     inkscape:window-x="0"
     inkscape:window-y="32"
     inkscape:window-maximized="1"
     inkscape:current-layer="g2" /><g
     stroke="rgba(0,0,0,0)"
     id="g2"><text
       xml:space="preserve"
       style="font-weight:bold;font-size:10.1756px;font-family:Shabnam;-inkscape-font-specification:'Shabnam Bold';text-align:center;text-anchor:middle;fill:#00ccff;stroke-width:0.545118"
       x="37.59586"
       y="11.655768"
       id="text2"><tspan
         sodipodi:role="line"
         id="tspan2"
         x="37.59586"
         y="11.655768"
         style="font-size:10.1756px;fill:#00ccff;stroke-width:0.545118">مدرسه غیرانتفاعی</tspan></text><text
       xml:space="preserve"
       style="font-weight:bold;font-size:20.0757px;font-family:Shabnam;-inkscape-font-specification:'Shabnam Bold';text-align:center;text-anchor:middle;fill:#00ccff;stroke-width:1.07548"
       x="37.59586"
       y="35.507248"
       id="text2-3"><tspan
         sodipodi:role="line"
         id="tspan2-6"
         x="37.59586"
         y="35.507248"
         style="font-size:20.0757px;fill:#00ccff;stroke-width:1.07548">فارابی</tspan></text><path
       style="fill:#00ccff;stroke-width:0.038333"
       d="m 101.28634,40.576569 -0.17554,-0.0297 -0.16945,-0.08632 -0.16945,-0.08632 -0.46,-0.289936 -0.459988,-0.289943 -0.20009,-0.145703 -0.20009,-0.145696 -0.26396,-0.221084 -0.26396,-0.221085 -0.31772,-0.286475 -0.31771,-0.286482 -0.0424,-0.03951 -0.0424,-0.03951 -0.55553,-0.477973 -0.55554,-0.477973 -0.0916,-0.07666 -0.0916,-0.07667 -0.0436,-0.03837 -0.0435,-0.0383 -0.1728,-0.153335 -0.17279,-0.153327 -0.24489,-0.210831 -0.2449,-0.210839 -0.0416,-0.03865 -0.0416,-0.03865 -0.345,-0.302775 -0.345,-0.302775 -0.26504,-0.23354 -0.26504,-0.233533 -0.0419,-0.03837 -0.0419,-0.0383 -0.45,-0.416688 -0.45002,-0.416696 -0.12471,-0.253371 -0.12471,-0.253379 0.004,-0.345755 0.004,-0.345763 0.0961,-0.256675 0.0961,-0.256683 0.16842,-0.294483 0.16842,-0.294483 0.30667,-0.363853 0.30666,-0.363853 0.14568,-0.177471 0.14568,-0.177479 0.046,-0.05826 0.046,-0.05826 0.15508,-0.210085 0.15507,-0.210079 0.157,-0.251182 0.15698,-0.25119 0.17156,-0.342978 0.17156,-0.342977 0.29028,-0.728324 0.29027,-0.728324 0.0774,-0.29044 0.0774,-0.290441 0.044,-0.361224 0.044,-0.361224 -0.0234,-0.325832 -0.0234,-0.325825 -0.0578,-1.916651 -0.0578,-1.916652 -0.0573,-1.820821 -0.0573,-1.820821 -0.0353,-0.785828 -0.0353,-0.785821 -0.0485,-1.720046 -0.0485,-1.720045 0.0694,-0.0508 0.0694,-0.0508 0.12009,-0.108443 0.12011,-0.108442 0.70263,-0.586544 0.70263,-0.586543 0.0986,-0.08333 0.0986,-0.08334 0.0956,-0.08624 0.0956,-0.08625 h 0.031 0.031 l 0.0252,0.1341 0.0252,0.134093 0.006,6.564603 0.005,6.564603 -0.0486,0.804991 -0.0486,0.804991 -0.0404,0.230002 -0.0404,0.229994 -0.17149,0.364166 -0.17148,0.364166 -0.0887,0.134164 -0.0887,0.134164 -0.43366,0.651664 -0.43366,0.651657 -0.13554,0.191668 -0.13554,0.191668 -0.13027,0.191661 -0.13027,0.191668 -0.14682,0.291527 -0.14682,0.29152 -0.10778,0.321804 -0.10778,0.321803 7e-5,0.402499 8e-5,0.402499 0.1149,0.208544 0.11491,0.20855 0.34979,0.38561 0.3498,0.385617 0.2827,0.289829 0.2827,0.289829 0.34398,0.304331 0.34398,0.304338 0.28851,0.271469 0.28852,0.271476 0.24916,0.223464 0.24917,0.223465 0.3261,0.310051 0.32611,0.310058 0.153058,0.129624 0.15305,0.129623 0.19166,0.17728 0.19167,0.177272 0.15334,0.129716 0.15332,0.129717 0.23047,0.215961 0.23045,0.215961 0.31666,0.241051 0.31665,0.241043 0.23872,0.120131 0.23871,0.120131 0.25317,0.0157 0.25317,0.01563 0.13772,-0.09026 0.13773,-0.09026 0.0835,-0.167083 0.0834,-0.167091 -0.0179,-0.273742 -0.0179,-0.273743 -0.12742,-0.210831 -0.12743,-0.210831 -0.0607,-0.07186 -0.0607,-0.07187 -0.91999,-0.884387 -0.91999,-0.884387 -0.36521,-0.34707 -0.36521,-0.34707 -0.3068,-0.287492 -0.306788,-0.287498 -0.63118,-0.555834 -0.63119,-0.555826 -0.16259,-0.167752 -0.16259,-0.167751 -0.10588,-0.215578 -0.10587,-0.215577 1.2e-4,-0.42167 1.1e-4,-0.421662 0.14172,-0.287499 0.14172,-0.287491 0.27421,-0.345003 0.2742,-0.344995 0.0895,-0.115001 0.0895,-0.115 0.17259,-0.229995 0.1726,-0.230002 0.35688,-0.460728 0.356878,-0.460728 0.0767,-0.09098 0.0767,-0.09098 0.15334,-0.17814 0.15333,-0.178132 0.17698,-0.209318 0.17697,-0.209318 0.26385,-0.310271 0.26385,-0.310264 0.49833,-0.587353 0.49833,-0.587353 0.0384,-0.04178 0.0384,-0.04178 0.19081,-0.229739 0.19082,-0.229738 0.0213,-0.01919 0.0213,-0.01918 0.14707,-0.182083 0.14706,-0.182076 h 0.0463 0.0463 l 0.20325,0.220409 0.20324,0.220417 0.41083,0.440833 0.41082,0.440825 0.11328,0.134172 0.11329,0.134164 0.26879,0.344995 0.26879,0.344995 0.31097,0.440833 0.31097,0.440826 0.21088,0.402499 0.21089,0.402499 0.17077,0.459997 0.17076,0.459996 0.0981,0.364165 0.0981,0.364159 0.0688,0.345002 0.0689,0.344996 -0.002,0.939155 -0.002,0.939163 -0.0852,0.479159 -0.0852,0.479166 -0.0938,0.356343 -0.0938,0.356343 -0.1535,0.391152 -0.15351,0.391152 -0.34111,0.636124 -0.34112,0.636125 -0.25954,0.418031 -0.25953,0.418032 -0.0705,0.07914 -0.0704,0.07914 v 0.04547 0.04547 h -0.0322 -0.0322 l -0.0471,0.103355 -0.0471,0.103355 -0.48433,0.672888 -0.48434,0.672895 -0.27045,0.344995 -0.27044,0.344996 -0.0955,0.112606 -0.0955,0.112599 -0.23183,0.27073 -0.23183,0.270729 -0.209,0.141305 -0.209,0.141305 -0.16073,0.04078 -0.16072,0.04078 -0.26094,-0.0043 -0.26094,-0.0043 z m 3.75082,-5.923888 0.142,-0.05933 0.0914,-0.08442 0.0914,-0.08442 0.0711,-0.163851 0.0711,-0.163843 0.047,-0.325043 0.047,-0.325044 -0.0453,-0.7761 -0.0453,-0.776101 -0.0586,-0.421663 -0.0586,-0.421662 -0.0945,-0.421663 -0.0945,-0.421662 -0.094,-0.338572 -0.094,-0.338572 -0.13331,-0.280735 -0.13332,-0.280734 -0.19215,-0.284741 -0.19214,-0.284742 -0.20237,-0.181955 -0.20237,-0.181948 -0.15534,-0.08276 -0.15533,-0.08276 -0.30694,7.9e-5 -0.30694,7.8e-5 -0.17306,0.101422 -0.17308,0.10143 -0.26748,0.276087 -0.26749,0.276087 -0.0388,0.0437 -0.0388,0.0437 -0.3475,0.402492 -0.34751,0.4025 -0.21166,0.268591 -0.21167,0.268598 -0.0699,0.133901 -0.0699,0.133901 1.5e-4,0.230002 1.6e-4,0.229994 0.10699,0.230002 0.10699,0.229994 0.69711,0.689998 0.69709,0.689991 0.8639,0.845201 0.86389,0.8452 0.22454,0.149043 0.22454,0.14905 0.13604,0.04867 0.13604,0.04867 0.0108,0.0014 0.0108,0.0014 z m -21.156999,5.641022 -0.178542,-0.0481 -0.205173,-0.124345 -0.205173,-0.124351 -0.264922,-0.248518 -0.264923,-0.248519 -0.250122,-0.218533 -0.250122,-0.218541 -0.212899,-0.189692 -0.212899,-0.189693 -0.04221,-0.04029 -0.04221,-0.04029 -0.321961,-0.290838 -0.32196,-0.290831 -0.443004,-0.39916 -0.443004,-0.39916 -0.533338,-0.479166 -0.533338,-0.479159 -0.06065,-0.05748 -0.06065,-0.05748 -0.342996,-0.305589 -0.342996,-0.305588 -0.172498,-0.15796 -0.172499,-0.157967 -0.229998,-0.204948 -0.229998,-0.204948 -0.2909,-0.296743 -0.2909,-0.296735 -0.160244,-0.318919 -0.160245,-0.318911 -0.04066,-0.226471 -0.04066,-0.226463 0.02613,-0.22517 0.02613,-0.225177 0.16512,-0.339254 0.16512,-0.339254 0.316041,-0.531597 0.316041,-0.531597 0.781775,-1.169157 0.781775,-1.169157 0.161064,-0.222485 0.161064,-0.222491 0.172498,-0.115668 0.172499,-0.115676 0.113945,0.02267 0.113946,0.02267 0.128782,0.12384 0.128782,0.123833 0.03963,0.07286 0.03963,0.07285 -0.002,0.14166 -0.002,0.141661 -0.114629,0.19441 -0.114629,0.194411 -0.343037,0.511063 -0.343037,0.511069 -0.153453,0.306662 -0.153454,0.306669 -0.110109,0.325825 -0.110109,0.325832 v 0.462703 0.462703 l 0.161026,0.32515 0.161027,0.32515 0.235899,0.331637 0.235899,0.331638 0.350755,0.337165 0.350755,0.337165 0.127421,0.09584 0.127421,0.09583 0.485721,0.396666 0.485721,0.396672 0.49833,0.40903 0.498329,0.409029 0.185801,0.152623 0.1858,0.152631 0.105724,0.07667 0.105725,0.07666 0.172628,0.153334 0.172627,0.153335 0.752456,0.608328 0.752456,0.608328 0.128812,0.06907 0.128811,0.06906 0.16173,0.04356 0.161728,0.04356 0.173366,-0.08393 0.173366,-0.08392 0.114733,-0.157832 0.114733,-0.157825 0.05432,-0.129268 0.05432,-0.129261 V 37.330624 37.16013 l -0.115668,-0.168114 -0.115666,-0.168121 -0.07052,-0.0496 -0.07052,-0.0496 -0.243268,-0.210831 -0.243269,-0.210831 -0.05942,-0.05748 -0.05941,-0.05748 -0.74523,-0.632493 -0.745228,-0.632494 -0.389194,-0.325832 -0.389194,-0.325832 -0.322105,-0.292444 -0.322105,-0.292444 -0.134166,-0.109814 -0.134165,-0.109807 -0.042,-0.03858 -0.04201,-0.03858 -0.302994,-0.267675 -0.302994,-0.267681 -0.344997,-0.34739 -0.344997,-0.34739 -0.106811,-0.215677 -0.106811,-0.215677 -0.04485,-0.21383 -0.04485,-0.213829 0.04529,-0.215919 0.04529,-0.215919 0.07746,-0.160006 0.07746,-0.160007 0.06759,-0.07448 0.06759,-0.07449 0.13327,-0.172498 0.133269,-0.172498 0.03889,-0.04398 0.03889,-0.04398 0.306664,-0.393695 0.306664,-0.393703 0.395818,-0.482307 0.395818,-0.482314 0.04501,-0.05762 0.04501,-0.05763 0.133614,-0.172369 0.133614,-0.17237 0.03889,-0.04277 0.03888,-0.04277 0.275825,-0.340526 0.275825,-0.340519 0.408338,-0.49833 0.408338,-0.498329 0.388534,-0.47916 0.388535,-0.479166 0.249027,-0.245733 0.249027,-0.24574 0.200351,-0.09172 0.200352,-0.09172 0.137945,0.02586 0.137946,0.02586 0.218298,0.162969 0.218297,0.162977 0.138558,0.148609 0.138558,0.148609 0.101024,0.152653 0.101023,0.152645 v 0.164021 0.164014 l -0.07782,0.1625 -0.07782,0.162493 -0.376809,0.468644 -0.37681,0.468643 -0.244948,0.274225 -0.244949,0.274226 -0.09583,0.117715 -0.09583,0.117715 -0.287498,0.327744 -0.287498,0.327736 -0.100679,0.115001 -0.100679,0.115 -0.550033,0.632494 -0.550033,0.632494 -0.553442,0.613331 -0.553442,0.61333 -0.112722,0.153327 -0.112723,0.153335 -0.111029,0.227209 -0.111028,0.227209 v 0.166977 0.166984 l 0.09166,0.180804 0.09166,0.180811 0.454588,0.439703 0.454589,0.439703 0.78694,0.69112 0.786941,0.69112 0.204151,0.172498 0.204151,0.172498 0.1014,0.0874 0.1014,0.0874 0.51737,0.430089 0.51737,0.430097 0.251785,0.249165 0.251785,0.249165 0.12998,0.264093 0.12998,0.264086 v 0.255162 0.255169 l -0.05318,0.132402 -0.05318,0.132409 -0.175126,0.243487 -0.175125,0.243488 -0.38639,0.523689 -0.386391,0.523689 -0.284437,0.258856 -0.284438,0.258864 -0.191666,0.09431 -0.191665,0.09431 -0.28042,0.05841 -0.280421,0.05841 -0.275408,-0.0028 -0.275408,-0.0028 z m 4.107287,-4.096288 -0.126727,-0.08625 -0.07596,-0.102559 -0.07596,-0.10256 -0.01696,-0.184939 -0.01696,-0.184939 0.219704,-0.325825 0.219704,-0.325832 0.02326,-0.01919 0.02326,-0.01918 0.210593,-0.248291 0.210593,-0.248298 0.07667,-0.09382 0.07667,-0.09383 0.172499,-0.196202 0.172499,-0.196201 0.330907,-0.400844 0.330906,-0.400836 0.450965,-0.536664 0.450961,-0.536663 0.0239,-0.01918 0.0239,-0.01919 0.36262,-0.440826 0.36262,-0.440833 0.0206,-0.01918 0.0206,-0.01919 0.26523,-0.325832 0.26523,-0.325832 0.23573,-0.268328 0.23573,-0.268328 0.20072,-0.268335 0.20072,-0.268328 0.048,-0.05969 0.048,-0.05969 0.17497,-0.250323 0.17497,-0.25033 0.2509,-0.494969 0.25091,-0.494976 0.10611,-0.344995 0.1061,-0.344996 0.002,-1.07042 10e-4,-1.070414 0.67083,-0.529444 0.67082,-0.529451 0.0227,-5.4e-4 0.0227,-5.4e-4 0.0254,1.197905 0.0254,1.197913 -0.0362,0.310982 -0.0362,0.310982 -0.0794,0.319124 -0.0794,0.319125 -0.19038,0.398548 -0.19039,0.398556 -0.1434,0.236333 -0.14339,0.236325 -0.27026,0.383336 -0.27027,0.383329 -0.19089,0.263603 -0.19088,0.26361 -0.36417,0.470732 -0.36416,0.470733 -0.28749,0.374362 -0.2875,0.374362 -0.0388,0.04128 -0.0388,0.04128 -0.52005,0.670828 -0.52006,0.670827 -0.47849,0.632494 -0.478479,0.632494 -0.442645,0.574996 -0.442644,0.574997 -0.283335,0.30372 -0.283336,0.30372 -0.17042,0.108358 -0.17042,0.108364 h -0.178492 -0.178492 z m -2.066423,-2.504609 -0.207661,-0.05585 -0.202845,-0.116052 -0.202845,-0.11606 -0.16026,-0.180171 -0.160259,-0.180165 -0.108191,-0.230001 -0.108193,-0.229995 -0.04465,-0.273351 -0.04465,-0.273345 0.06625,-0.301652 0.06625,-0.301646 0.09718,-0.180512 0.09718,-0.180506 0.192853,-0.191845 0.192852,-0.191846 0.285645,-0.141134 0.285644,-0.141142 0.35001,-0.01776 0.35001,-0.01776 0.245986,0.08343 0.245986,0.08344 0.175677,0.116806 0.175678,0.116798 0.162773,0.177713 0.162773,0.17772 0.12062,0.287499 0.12062,0.287498 0.01853,0.25448 0.01853,0.254487 -0.04818,0.205509 -0.04818,0.205517 -0.112214,0.229994 -0.112214,0.230002 -0.179862,0.185237 -0.179862,0.185245 -0.191666,0.09844 -0.191665,0.09844 -0.191665,0.0513 -0.191665,0.0513 -0.268331,-0.0021 -0.268332,-0.0021 z m 22.408565,-3.17253 -0.025,-0.550092 -0.0576,-0.330003 -0.0575,-0.329996 -0.0596,-0.183646 -0.0596,-0.183653 -0.32464,-0.656816 -0.32464,-0.656815 0.25961,-0.246849 0.25961,-0.246848 0.2875,-0.263511 0.28749,-0.263503 0.9412,-0.888885 0.9412,-0.888892 0.28745,-0.320588 0.28744,-0.320588 0.11765,-0.153328 0.11765,-0.153334 0.11994,-0.238493 0.11995,-0.238485 -3.9e-4,-0.144844 -3.8e-4,-0.144843 -0.0952,-0.204458 -0.0952,-0.204465 -0.26534,-0.351368 -0.26534,-0.351362 -1.297,-1.289196 -1.29701,-1.289188 -1.01582,-1.003715 -1.01583,-1.003715 -2.90637,-2.901218 -2.90637,-2.901218 -2.158238,-2.1849869 -2.15823,-2.1849816 -0.1074,-0.1284058 -0.10739,-0.1284065 -0.3009,-0.2429434 -0.3009,-0.2429434 -0.21955,-0.1078137 -0.21956,-0.107813 -0.2875,0.00128 -0.28749,0.00128 -0.1725,0.090309 -0.1725,0.09031 -0.22999,0.1657902 -0.23001,0.1657901 -3.047471,3.0311841 -3.047476,3.0311819 -3.078581,3.055575 -3.078581,3.055576 -1.642137,1.629153 -1.642138,1.629153 -0.134445,0.235579 -0.134445,0.23558 -0.04408,0.212351 -0.04408,0.212352 0.02696,0.146229 0.02696,0.146229 0.0939,0.199505 0.0939,0.199499 0.278771,0.279661 0.27877,0.279661 0.380369,0.345002 0.380368,0.344996 0.170943,0.201985 0.170944,0.201978 0.107978,0.188918 0.107977,0.188918 0.02172,0.210462 0.02172,0.210455 -0.06545,0.165307 -0.06545,0.165299 -0.177756,0.229995 -0.177755,0.230002 -0.02078,0.01918 -0.02078,0.01919 -0.273531,0.325832 -0.27353,0.325825 -0.07134,0.07719 -0.07134,0.07719 -0.281976,0.315721 -0.281976,0.315721 h -0.03172 -0.03172 l -0.203836,-0.195835 -0.203803,-0.195846 -0.613464,-0.599567 -0.613465,-0.599568 -1.261302,-1.226654 -1.261302,-1.226661 -0.247237,-0.249164 -0.247237,-0.249165 -0.07918,-0.153328 -0.07918,-0.153334 -0.01464,-0.306669 -0.01464,-0.306662 0.117865,-0.201246 0.117865,-0.201253 h 0.03756 0.03756 v -0.0427 -0.04277 l 0.392507,-0.446012 0.392507,-0.446006 2.978285,-2.970808 2.978287,-2.970815 4.899558,-4.882905 4.899559,-4.882909 2.344171,-2.3372718 2.34418,-2.3372722 0.0583,0.032742 0.0583,0.032735 7.290678,7.2641091 7.29067,7.2641069 2.20922,2.195475 2.20921,2.195474 0.24917,0.244135 0.24916,0.244141 0.61784,0.62703 0.61783,0.627029 0.15898,0.246401 0.15897,0.246401 0.0761,0.246387 0.0761,0.246379 v 0.244355 0.244347 l -0.0638,0.163694 -0.0638,0.163694 -0.21279,0.249165 -0.21279,0.249158 -0.53798,0.549218 -0.53798,0.549212 -1.51415,1.508802 -1.51416,1.508795 -0.40249,0.388921 -0.4025,0.38892 -0.63582,0.619712 -0.63583,0.619711 -0.30764,0.297076 -0.30765,0.297084 h -0.0377 -0.0377 z m -18.424396,-0.590316 7.06e-4,-0.02878 0.13464,-0.421662 0.134641,-0.421663 0.07311,-0.364165 0.07311,-0.364159 0.0404,-0.440833 0.0404,-0.440833 0.0377,-1.043881 0.0377,-1.043882 -0.0192,-0.35527 -0.0192,-0.355277 -0.0955,-2.20415 -0.0955,-2.20415 -0.07636,-1.629153 -0.07637,-1.629153 -0.05891,-1.226655 -0.05891,-1.22666 -0.03107,-0.508072 -0.03107,-0.508071 0.0041,-0.159644 0.0041,-0.159644 0.325831,-0.28769 0.32583,-0.28769 0.62658,-0.558747 0.62658,-0.558747 h 0.0443 0.0443 l 0.009,0.479159 0.009,0.479167 0.0772,5.979949 0.0772,5.979957 -1.5e-4,1.056593 -1.5e-4,1.056594 -0.0556,0.419225 -0.0556,0.419232 -0.10027,0.344782 -0.10026,0.344783 -0.11898,0.211044 -0.11899,0.211044 -0.11553,0.153335 -0.11553,0.153334 -0.30918,0.309362 -0.30918,0.309369 -0.344998,0.274289 -0.344997,0.27429 -0.04792,7.1e-4 -0.04792,7.11e-4 z m 12.610856,-7.156041 -0.17249,-0.04803 -0.16284,-0.08347 -0.16283,-0.08347 -0.21102,-0.214419 -0.21102,-0.214427 -0.11856,-0.248426 -0.11857,-0.248426 -0.0394,-0.265777 -0.0394,-0.265777 0.0464,-0.238543 0.0464,-0.238549 0.11022,-0.232304 0.11021,-0.232296 0.23008,-0.21945 0.23007,-0.219458 0.26019,-0.123243 0.26019,-0.123243 h 0.44083 0.44083 l 0.25455,0.124536 0.25455,0.124544 0.18628,0.168334 0.18628,0.168334 0.12983,0.215982 0.12984,0.21599 0.0516,0.219464 0.0517,0.219472 6e-4,0.224466 5.9e-4,0.224467 -0.0596,0.230058 -0.0596,0.230059 -0.0982,0.158805 -0.0982,0.158799 -0.13928,0.147287 -0.13929,0.147288 -0.15651,0.108897 -0.15651,0.108898 -0.23519,0.07923 -0.23519,0.07923 -0.31746,-0.0036 -0.31746,-0.0036 z"
       id="path2" /></g></svg>
