<?xml version="1.0" encoding="UTF-8" standalone="no"?>
<svg
   width="999.99878"
   height="378.332"
   viewBox="0 0 999.99876 378.33201"
   class="d-lg-block d-none"
   version="1.1"
   id="svg2"
   sodipodi:docname="logo_white.svg"
   xml:space="preserve"
   inkscape:version="1.4.2 (ebf0e940d0, 2025-05-08)"
   xmlns:inkscape="http://www.inkscape.org/namespaces/inkscape"
   xmlns:sodipodi="http://sodipodi.sourceforge.net/DTD/sodipodi-0.dtd"
   xmlns="http://www.w3.org/2000/svg"
   xmlns:svg="http://www.w3.org/2000/svg"><defs
     id="defs2" /><sodipodi:namedview
     id="namedview2"
     pagecolor="#ffffff"
     bordercolor="#000000"
     borderopacity="0.25"
     inkscape:showpageshadow="2"
     inkscape:pageopacity="0.0"
     inkscape:pagecheckerboard="0"
     inkscape:deskcolor="#d1d1d1"
     inkscape:zoom="0.73232972"
     inkscape:cx="355.03134"
     inkscape:cy="206.87403"
     inkscape:window-width="1920"
     inkscape:window-height="1011"
     inkscape:window-x="0"
     inkscape:window-y="0"
     inkscape:window-maximized="1"
     inkscape:current-layer="g2"
     showguides="false"
     showgrid="false" /><g
     stroke="rgba(0,0,0,0)"
     id="g2"><g
       id="text1"
       style="font-size:116.982px;fill:#ffffff;stroke-width:1.82785"
       aria-label="وب‌سایت ثبت نمرات&#10;احمد بیرانوند"><path
         style="font-family:Shabnam;-inkscape-font-specification:Shabnam;text-align:center;text-anchor:middle;fill:#ffffff"
         d="m 983.10514,103.00865 v 19.8778 q 0,12.45219 -8.5109,19.53508 -8.51089,7.14002 -24.50453,7.14002 h -4.22688 v -10.05314 h 3.88416 q 11.48115,0 17.53588,-4.22689 6.05473,-4.22689 6.11185,-12.28083 v -0.11424 h -9.25346 q -19.8778,0 -19.8778,-19.36372 0,-4.798088 1.25664,-8.796497 1.25665,-3.998408 3.65569,-6.968654 2.45617,-2.970246 6.22609,-4.62673 3.82705,-1.656483 8.68226,-1.656483 9.02498,0 13.99443,5.769132 5.02657,5.769132 5.02657,15.765152 z m -29.30262,0.2856 q 0,9.31058 10.28162,9.31058 h 9.3677 v -9.6533 q 0,-5.712011 -2.5704,-8.682258 -2.51329,-2.970246 -7.02578,-2.970246 -4.91233,0 -7.48273,3.198727 -2.57041,3.141606 -2.57041,8.796497 z m -92.36325,9.31058 h 47.12409 q 14.33715,0 14.33715,-15.022591 V 86.329576 h 9.9389 v 11.081303 q 0,25.475571 -24.44741,25.475571 h -46.78137 q -12.39507,0 -18.7354,-6.34033 -6.28322,-6.34033 -6.28322,-18.906761 V 86.158216 h 9.9389 v 11.424023 q 0,15.022591 14.90836,15.022591 z m 14.85123,29.18838 8.39665,-8.39666 8.39666,8.39666 -8.39666,8.39666 z m -69.11535,-18.90676 q -5.48354,0 -9.19634,-1.94208 -3.65569,-1.99921 -6.11186,-6.11185 -4.51249,8.05393 -15.70803,8.05393 -9.9389,0 -15.13683,-8.05393 -5.36929,8.05393 -18.7354,8.05393 h -5.36929 q -1.428,0 -1.428,-4.91233 v -0.62832 q 0,-4.74097 1.428,-4.74097 h 5.42641 q 13.53747,0 13.53747,-11.0813 V 86.672297 h 9.76754 l 0.0571,14.965473 q 0.0571,5.48353 2.68464,8.22529 2.68465,2.74177 7.99682,2.74177 5.02657,0 7.6541,-2.74177 2.62752,-2.79888 2.62752,-8.28241 l 0.0571,-14.908353 h 9.71042 l 0.0571,14.794113 q 0.11424,11.0813 10.33874,11.0813 8.33954,0 8.33954,-10.85282 V 84.844453 h 9.99602 v 17.307397 q 0,9.9389 -4.74097,15.36531 -4.68385,5.36929 -13.25186,5.36929 z m -68.31568,-4.91233 q 0,4.91233 -1.31377,4.91233 h -2.62752 q -18.62116,0 -18.62116,-21.42004 V 46.745334 h 9.48194 v 54.778196 q 0,11.0813 9.31058,11.0813 h 2.45616 q 1.31377,0 1.31377,4.74097 z m -57.17718,23.81909 8.16818,-8.2253 8.22529,8.2253 -8.22529,8.2253 z m -20.10628,0 8.22529,-8.2253 8.16818,8.2253 -8.16818,8.2253 z m 2.62752,-29.18838 h 16.165 q 5.99761,0 8.73937,-2.45616 2.79889,-2.45617 2.79889,-8.56802 V 84.787333 h 9.9389 v 16.850437 q 0,21.24868 -21.42004,21.24868 h -16.22212 q -1.428,0 -1.428,-4.91233 v -0.62832 q 0,-4.74097 1.428,-4.74097 z m -59.17646,-38.441839 8.16818,-8.225297 8.2253,8.225297 -8.2253,8.225297 z m -20.10628,0 8.2253,-8.225297 8.16818,8.225297 -8.16818,8.225297 z m 62.26093,40.955129 q -2.91313,4.05552 -7.42561,5.94049 -4.51249,1.82784 -12.90915,1.82784 h -47.1241 q -24.67589,0 -24.67589,-25.247091 V 86.158216 h 9.99602 v 11.424023 q 0,15.022591 14.85123,15.022591 h 47.06698 q 7.9397,0 11.48114,-2.5704 3.54145,-2.57041 3.54145,-8.56802 V 86.729417 h 9.76754 v 14.736993 q 0,5.71201 2.74177,8.45377 2.74176,2.68465 9.08209,2.68465 h 1.25665 q 1.31376,0 1.31376,4.74097 v 0.62832 q 0,4.91233 -1.31376,4.91233 h -1.19953 q -6.22609,0 -10.05314,-1.88496 -3.82704,-1.88497 -6.39745,-5.88337 z m -173.35957,-2.51329 h 16.165 q 5.99761,0 8.73938,-2.45616 2.79888,-2.45617 2.79888,-8.56802 V 84.787333 h 9.9389 v 16.850437 q 0,21.24868 -21.42004,21.24868 h -16.22212 q -1.428,0 -1.428,-4.91233 v -0.62832 q 0,-4.74097 1.428,-4.74097 z m 14.62275,-60.433085 7.71122,-7.654096 7.6541,7.654096 -7.6541,7.768336 z m 9.76754,14.108669 7.71122,-7.768336 7.76834,7.768336 -7.76834,7.654096 z m -19.64932,0 7.76834,-7.768336 7.71122,7.768336 -7.71122,7.654096 z m -50.83691,46.324416 h 10.05314 q 7.19713,0 10.45298,-2.74177 3.31297,-2.74176 3.31297,-8.39665 V 86.729417 h 9.76754 v 14.736993 q 0,5.71201 2.74176,8.45377 2.74177,2.68465 9.0821,2.68465 h 1.25664 q 1.31377,0 1.31377,4.74097 v 0.62832 q 0,4.91233 -1.31377,4.91233 h -1.19952 q -6.11185,0 -9.99602,-1.88496 -3.82705,-1.88497 -6.45457,-5.88337 -3.08449,3.9984 -7.6541,5.88337 -4.51249,1.88496 -11.59538,1.88496 h -9.76754 q -1.42801,0 -1.42801,-4.91233 v -0.62832 q 0,-4.74097 1.42801,-4.74097 z m 4.45537,29.18838 8.39665,-8.39666 8.39666,8.39666 -8.39666,8.39666 z m -63.6318,-67.630219 8.16818,-8.225297 8.22529,8.225297 -8.22529,8.225297 z m -20.10628,0 8.22529,-8.225297 8.16818,8.225297 -8.16818,8.225297 z m 62.26093,40.955129 q -2.91313,4.05552 -7.42562,5.94049 -4.51249,1.82784 -12.90915,1.82784 h -47.12409 q -24.67589,0 -24.67589,-25.247091 V 86.158216 h 9.99602 v 11.424023 q 0,15.022591 14.85123,15.022591 h 47.06697 q 7.9397,0 11.48115,-2.5704 3.54145,-2.57041 3.54145,-8.56802 V 86.729417 h 9.76754 v 14.736993 q 0,5.71201 2.74176,8.45377 2.74177,2.68465 9.0821,2.68465 h 1.25664 q 1.31377,0 1.31377,4.74097 v 0.62832 q 0,4.91233 -1.31377,4.91233 h -1.19952 q -6.22609,0 -10.05314,-1.88496 -3.82705,-1.88497 -6.39745,-5.88337 z m -168.78996,-2.51329 h 11.59538 q 5.99762,0 8.73938,-2.45616 2.79889,-2.45617 2.79889,-8.56802 V 84.787333 h 9.9389 v 16.850437 q 0,21.24868 -21.53429,21.24868 h -11.53826 q -1.428,0 -1.428,-4.91233 v -0.62832 q 0,-4.74097 1.428,-4.74097 z m 16.10787,-48.32362 8.39666,-8.396657 8.39666,8.396657 -8.39666,8.396658 z m -76.71232,48.32362 h 5.71202 q 3.88416,0 5.71201,-1.08528 1.88496,-1.1424 2.05632,-3.48433 0.17136,-2.62752 0.17136,-6.56881 0,-11.081306 4.79809,-16.564837 4.85521,-5.483531 13.99443,-5.483531 9.71042,0 14.45139,5.426411 4.79809,5.426411 4.79809,16.736197 0,1.08528 -0.17136,2.62752 -0.17136,1.54225 -0.34272,2.79889 -0.11424,1.19952 -0.11424,1.54224 0,4.05553 8.16818,4.05553 h 1.94208 q 1.31376,0 1.31376,4.74097 v 0.62832 q 0,4.91233 -1.31376,4.91233 h -1.82784 q -3.76993,0 -7.19714,-1.25664 -3.37009,-1.25664 -5.31217,-3.59857 -4.85521,5.65489 -14.39427,5.65489 -4.91233,0 -8.16818,-1.31376 -3.25584,-1.31376 -6.16897,-4.22689 -3.99841,4.74097 -12.28082,4.74097 h -5.82626 q -1.428,0 -1.428,-4.91233 v -0.62832 q 0,-4.74097 1.428,-4.74097 z m 23.19077,-11.25266 q 0,12.39506 9.3677,12.39506 9.3677,0 9.3677,-12.39506 0,-11.766747 -9.42482,-11.766747 -9.31058,0 -9.31058,11.766747 z m -23.53349,21.53428 q -9.13922,0 -12.2237,-4.51249 v 0.34272 q 0,14.62275 -8.39666,22.61957 -8.33954,7.99682 -24.27605,8.2253 l -4.11265,0.0571 v -9.99602 h 3.99841 q 11.0813,0 16.90755,-5.36929 5.82626,-5.31218 5.82626,-15.47956 V 88.27166 h 9.99602 v 12.73779 q 0,11.59538 12.28082,11.59538 h 0.91392 q 1.31377,0 1.31377,4.74097 v 0.62832 q 0,4.91233 -1.31377,4.91233 z M 122.81903,46.688214 h 9.48194 v 76.141116 h -9.48194 z M 37.138845,112.60483 h 47.124097 q 14.33715,0 14.33715,-15.022591 V 86.329576 h 9.938898 v 11.081303 q 0,25.475571 -24.447408,25.475571 H 37.310205 q -12.395066,0 -18.735399,-6.34033 -6.283213,-6.34033 -6.283213,-18.906761 V 86.158216 h 9.938901 v 11.424023 q 0,15.022591 14.908351,15.022591 z m 25.132852,-38.441839 8.168177,-8.225297 8.225297,8.225297 -8.225297,8.225297 z m -20.106282,0 8.225297,-8.225297 8.168177,8.225297 -8.168177,8.225297 z"
         id="path2" /><path
         style="font-size:155.977px;font-family:Shabnam;-inkscape-font-specification:Shabnam;text-align:center;text-anchor:middle;fill:#ffffff"
         d="m 885.16566,198.85092 h 12.64267 v 101.52214 h -12.64267 z m -110.96603,87.88939 h 24.75221 q 15.84141,0 29.39801,-7.00678 l 22.16274,-10.43401 -15.46061,-8.52999 q -9.82472,-5.48357 -18.35471,-5.48357 -4.79812,0 -8.83464,1.67554 -3.96035,1.67553 -8.68231,5.4074 l -5.40741,4.34116 -8.75847,-9.82473 4.6458,-3.96035 q 7.08294,-5.94053 13.32811,-8.75847 6.24517,-2.81795 13.25195,-2.81795 10.73865,0 21.78195,6.3975 l 14.39436,8.30151 q 7.08294,4.11267 14.47052,5.63589 v 13.70891 l -31.83515,16.0699 q -16.37454,8.98695 -35.94782,8.98695 h -24.90453 q -1.90402,0 -1.90402,-6.54981 v -0.83777 q 0,-6.32133 1.90402,-6.32133 z m -80.80652,0 h 7.61606 q 5.17893,0 7.61607,-1.44705 2.5133,-1.52322 2.74178,-4.6458 0.22848,-3.50339 0.22848,-8.75848 0,-14.77516 6.3975,-22.08659 6.47365,-7.31142 18.65935,-7.31142 12.94731,0 19.26865,7.23526 6.39749,7.23527 6.39749,22.31507 0,1.44706 -0.22848,3.50339 -0.22848,2.05634 -0.45696,3.73187 -0.15232,1.59938 -0.15232,2.05634 0,5.40741 10.89097,5.40741 h 2.58946 q 1.75169,0 1.75169,6.32133 v 0.83777 q 0,6.54981 -1.75169,6.54981 h -2.43714 q -5.0266,0 -9.59624,-1.67553 -4.49348,-1.67553 -7.08294,-4.79812 -6.47366,7.5399 -19.19249,7.5399 -6.54981,0 -10.89097,-1.75169 -4.34116,-1.7517 -8.22535,-5.63589 -5.33124,6.32133 -16.37454,6.32133 h -7.76838 q -1.90402,0 -1.90402,-6.54981 v -0.83777 q 0,-6.32133 1.90402,-6.32133 z m 30.92122,-15.00365 q 0,16.52686 12.49035,16.52686 12.49034,0 12.49034,-16.52686 0,-15.68909 -12.56651,-15.68909 -12.41418,0 -12.41418,15.68909 z m -55.36876,15.00365 q -3.12259,6.39749 -11.11945,10.0532 -7.92071,3.65571 -20.41106,3.65571 h -27.72247 v -13.70891 h 27.79863 q 20.10641,0 20.10641,-9.13928 0,-2.8941 -1.90401,-6.39749 -1.90402,-3.57955 -5.48357,-7.76839 l -21.32498,-24.59989 9.21544,-10.35785 33.96765,39.90818 q 7.69222,8.9108 11.19561,12.49035 3.50339,3.57955 5.48357,4.72196 2.05634,1.14241 4.72196,1.14241 h 0.68544 q 1.7517,0 1.7517,6.32133 v 0.83777 q 0,3.35107 -0.45696,4.95044 -0.45697,1.59937 -1.29474,1.59937 h -1.21857 q -2.20865,0 -4.26499,-0.3808 -2.05634,-0.3808 -3.57955,-0.83777 -1.52322,-0.45696 -3.50339,-1.67553 -1.90402,-1.21857 -2.97027,-1.90402 -1.06625,-0.7616 -3.19874,-2.66562 -2.1325,-1.98018 -3.04643,-2.81794 -0.91393,-0.91393 -3.42723,-3.42723 z m -161.46057,0 h 15.46061 q 7.99686,0 11.65258,-3.27491 3.73187,-3.27491 3.73187,-11.4241 v -22.39123 h 13.25195 v 22.46739 q 0,28.33176 -28.71256,28.33176 H 507.485 q -1.90402,0 -1.90402,-6.54981 v -0.83777 q 0,-6.32133 1.90402,-6.32133 z m 5.94053,38.91809 11.19561,-11.19562 11.19562,11.19562 -11.19562,11.19561 z m -49.42825,0 10.89097,-10.96713 10.96713,10.96713 -10.96713,10.96713 z m -26.80855,0 10.96713,-10.96713 10.89097,10.96713 -10.89097,10.96713 z m 3.50339,-38.91809 h 18.73552 q 9.59624,0 13.9374,-3.65571 4.41731,-3.65571 4.41731,-11.19562 v -19.64944 h 13.02347 v 19.64944 q 0,7.61607 3.65571,11.27178 3.65572,3.57955 12.10955,3.57955 h 1.67553 q 1.7517,0 1.7517,6.32133 v 0.83777 q 0,6.54981 -1.7517,6.54981 h -1.59937 q -8.30151,0 -13.40428,-2.5133 -5.10276,-2.5133 -8.52999,-7.84454 -3.96035,5.33124 -10.0532,7.84454 -6.09286,2.5133 -15.61294,2.5133 h -18.35471 q -1.90402,0 -1.90402,-6.54981 v -0.83777 q 0,-6.32133 1.90402,-6.32133 z m -0.45696,13.70891 q -12.18571,0 -16.29838,-6.01669 v 0.45697 q 0,19.49712 -11.19562,30.15961 -11.11945,10.66249 -32.36827,10.96714 l -5.48357,0.0762 v -13.32812 h 5.33125 q 14.77516,0 22.54355,-7.1591 7.76839,-7.08294 7.76839,-20.63953 v -40.66979 h 13.32811 v 16.98383 q 0,15.46061 16.37454,15.46061 h 1.21857 q 1.75169,0 1.75169,6.32133 v 0.83777 q 0,6.54981 -1.75169,6.54981 z m -77.53154,-101.5983 h 12.64267 v 101.52214 h -12.64267 z m -63.36566,87.88939 h 15.46061 q 7.99687,0 11.65258,-3.27491 3.73187,-3.27491 3.73187,-11.4241 v -22.39123 h 13.25196 v 22.46739 q 0,28.33176 -28.71257,28.33176 h -15.38445 q -1.90401,0 -1.90401,-6.54981 v -0.83777 q 0,-6.32133 1.90401,-6.32133 z m 21.4773,-64.43191 11.19562,-11.19561 11.19561,11.19561 -11.19561,11.19562 z m -31.45434,78.14082 q 0,16.67919 -11.34794,26.12311 -11.27178,9.44392 -32.67292,9.44392 h -5.63589 v -13.40428 h 5.17893 q 15.30829,0 23.38132,-5.63588 8.07303,-5.63589 8.14919,-16.37454 v -0.15233 h -12.33803 q -26.5039,0 -26.5039,-25.81845 0,-6.3975 1.67553,-11.72874 1.67553,-5.33125 4.87428,-9.2916 3.27491,-3.96036 8.30151,-6.16902 5.10277,-2.20865 11.57642,-2.20865 12.03338,0 18.65936,7.69222 6.70214,7.69223 6.70214,21.02034 v 12.79499 h 10.73865 q 1.90401,0 1.90401,6.32133 v 0.83777 q 0,6.54981 -1.90401,6.54981 z m -39.07042,-26.1231 q 0,12.41419 13.70892,12.41419 h 12.49035 v -12.87115 q 0,-7.61607 -3.42723,-11.57642 -3.35107,-3.96035 -9.36776,-3.96035 -6.54982,0 -9.97705,4.26499 -3.42723,4.18884 -3.42723,11.72874 z m -72.27645,12.41419 h 15.46061 q 7.99687,0 11.65258,-3.27491 3.73187,-3.27491 3.73187,-11.4241 v -22.39123 h 13.25195 v 22.46739 q 0,28.33176 -28.71256,28.33176 h -15.38445 q -1.90402,0 -1.90402,-6.54981 v -0.83777 q 0,-6.32133 1.90402,-6.32133 z m 21.4773,-64.43191 11.19562,-11.19561 11.19561,11.19561 -11.19561,11.19562 z m -45.92487,64.43191 q -3.12259,6.39749 -11.11945,10.0532 -7.92071,3.65571 -20.41106,3.65571 H 94.313497 v -13.70891 h 27.798633 q 20.10641,0 20.10641,-9.13928 0,-2.8941 -1.90401,-6.39749 -1.90402,-3.57955 -5.48357,-7.76839 l -21.32498,-24.59989 9.21544,-10.35785 33.96765,39.90818 q 7.69222,8.9108 11.19561,12.49035 3.50339,3.57955 5.48357,4.72196 2.05634,1.14241 4.72196,1.14241 h 0.68544 q 1.7517,0 1.7517,6.32133 v 0.83777 q 0,3.35107 -0.45696,4.95044 -0.45697,1.59937 -1.29474,1.59937 h -1.21857 q -2.20865,0 -4.26499,-0.3808 -2.05634,-0.3808 -3.57955,-0.83777 -1.52322,-0.45696 -3.50339,-1.67553 -1.90402,-1.21857 -2.97027,-1.90402 -1.06625,-0.7616 -3.19874,-2.66562 -2.1325,-1.98018 -3.04643,-2.81794 -0.91393,-0.91393 -3.42723,-3.42723 z"
         id="path3" /></g></g></svg>
