<?xml version="1.0" encoding="UTF-8" standalone="no"?>
<svg
   width="999.99878"
   height="378.332"
   viewBox="0 0 999.99876 378.33201"
   class="d-lg-block d-none"
   version="1.1"
   id="svg2"
   sodipodi:docname="logo.svg"
   xml:space="preserve"
   inkscape:version="1.3.1 (9b9bdc1480, 2023-11-25, custom)"
   xmlns:inkscape="http://www.inkscape.org/namespaces/inkscape"
   xmlns:sodipodi="http://sodipodi.sourceforge.net/DTD/sodipodi-0.dtd"
   xmlns="http://www.w3.org/2000/svg"
   xmlns:svg="http://www.w3.org/2000/svg"><defs
     id="defs2" /><sodipodi:namedview
     id="namedview2"
     pagecolor="#ffffff"
     bordercolor="#000000"
     borderopacity="0.25"
     inkscape:showpageshadow="2"
     inkscape:pageopacity="0.0"
     inkscape:pagecheckerboard="0"
     inkscape:deskcolor="#d1d1d1"
     inkscape:zoom="0.73232972"
     inkscape:cx="356.39684"
     inkscape:cy="207.55678"
     inkscape:window-width="1920"
     inkscape:window-height="1011"
     inkscape:window-x="0"
     inkscape:window-y="32"
     inkscape:window-maximized="1"
     inkscape:current-layer="g2"
     showguides="false" /><g
     stroke="rgba(0,0,0,0)"
     id="g2"><path
       d="m 588.4277,97.322754 h 4.34731 q 1.76474,0 2.71168,-0.258244 0.94694,-0.301299 1.16215,-0.645654 0.21519,-0.344354 0.25825,-0.946944 0.12916,-1.893871 0.12916,-4.820768 0,-8.866776 4.13209,-13.601461 4.17513,-4.734686 11.75062,-4.734686 8.00593,0 12.09498,4.691643 4.13208,4.691643 4.13208,13.730589 0,8.651564 -4.21817,13.515371 -4.21817,4.86382 -12.00889,4.86382 -6.58552,0 -10.76064,-3.52949 -3.35733,2.92689 -9.2972,2.92689 h -4.43339 q -0.51649,0 -0.77473,-1.80779 -0.3013,-1.85083 -0.3013,-3.61557 v -0.47352 q 0,-1.67866 0.3013,-3.486451 0.3013,-1.807787 0.77473,-1.807787 z m 20.57437,-0.860842 q 1.33431,1.721702 4.00295,1.721702 2.66865,0 4.00297,-1.721702 1.33432,-1.764749 1.33432,-5.896836 0,-3.959919 -1.29128,-5.552495 -1.24824,-1.592576 -4.08905,-1.592576 -2.75473,0 -4.046,1.592576 -1.24823,1.592576 -1.24823,5.552495 0,4.132087 1.33432,5.896836 z m -20.1009,12.051928 h -0.68871 q -1.7217,0 -3.31428,-0.34436 -1.54953,-0.38741 -2.79777,-0.9039 -1.20519,-0.55954 -2.5395,-1.50648 -1.33433,-0.94694 -2.32431,-1.80779 -0.94693,-0.86084 -2.23821,-2.15213 -2.49647,3.22819 -7.10204,4.99294 -4.5625,1.7217 -11.06194,1.7217 h -15.66751 -1.7217 v -1.7217 -7.747672 -1.721703 h 1.7217 15.71055 q 2.9269,0 4.9499,-0.301299 2.023,-0.344354 2.96994,-0.903889 0.98998,-0.559543 1.33432,-1.076066 0.38741,-0.559543 0.38741,-1.162152 0,-1.119107 -0.98998,-2.926897 -0.94693,-1.80778 -2.75473,-3.959911 l -12.05192,-13.902759 -0.98999,-1.119108 0.98999,-1.162149 5.20815,-5.853794 1.33432,-1.463448 1.24823,1.506491 19.19701,22.554321 q 3.1421,3.658621 4.90685,5.638581 1.76475,1.979956 2.9269,2.9269 1.16215,0.903889 1.63562,1.076066 0.47343,0.129165 1.33432,0.129165 h 0.38741 q 0.47343,0 0.77473,1.807787 0.3013,1.807796 0.3013,3.486446 v 0.47352 q 0,1.76474 -0.3013,3.61558 -0.25824,1.80778 -0.77473,1.80778 z m -80.96314,9.21111 q 15.40924,0 15.40924,-13.98884 V 80.751355 79.029651 h 1.72171 l 7.48941,-0.04306 h 1.72171 v 1.721703 23.027796 q 0,11.70759 -6.84378,18.25006 -6.84377,6.58552 -19.41221,6.67161 l -3.05603,0.0433 -1.76474,0.0433 v -1.76475 -7.53246 -1.7217 h 1.72171 z M 441.17896,97.322763 h 4.08904 q 4.51948,0 6.49944,-1.592572 1.97996,-1.635621 1.97996,-5.035987 V 79.503119 77.781415 h 1.7217 7.36029 1.7217 v 1.721704 l 0.0433,11.277162 q 0.0433,3.52949 1.46344,5.035986 1.46345,1.506487 4.86382,1.506487 3.14211,0 4.56252,-1.506487 1.46345,-1.549534 1.46345,-5.079029 l 0.0433,-11.234119 v -1.721704 h 1.72171 7.31724 1.72171 v 1.721704 l 0.0433,11.148034 q 0.0433,3.61558 1.46345,5.122067 1.4204,1.506496 4.60556,1.506496 2.41039,0 3.48645,-1.420412 1.07606,-1.420403 1.07606,-5.035981 V 78.125757 76.404052 h 1.72171 7.53246 1.7217 v 1.721705 13.041906 q 0,8.048971 -4.046,12.697567 -4.04601,4.6486 -11.23412,4.6486 -7.44637,0 -11.49238,-4.82077 -4.08905,4.82077 -11.87975,4.82077 -7.18812,0 -11.44934,-4.94989 -4.60555,4.94989 -14.07492,4.94989 h -4.04601 q -0.51649,0 -0.77473,-1.80779 -0.3013,-1.85083 -0.3013,-3.61557 v -0.47352 q 0,-1.67866 0.3013,-3.486453 0.3013,-1.807786 0.77473,-1.807786 z m -1.54952,11.191077 q -5.20816,0 -9.16808,-2.023 -3.95992,-2.06604 -5.98292,-6.02596 h -6.62856 q -9.64154,0 -14.59144,-3.658623 -4.90686,-3.658625 -4.90686,-9.684589 0,-6.843773 5.20816,-10.975862 5.2512,-4.13209 15.32317,-5.982922 l 1.20518,-0.172169 -0.17213,-1.248235 -0.17213,-1.635618 1.63561,-0.3013 6.80074,-1.076065 1.76474,-0.258253 0.21519,1.764747 2.9269,24.620366 q 0.55954,3.314273 2.06604,4.39034 1.50649,1.076066 4.9499,1.076066 h 1.50649 q 0.47344,0 0.77474,1.807786 0.30129,1.807791 0.30129,3.486451 v 0.47352 q 0,1.76474 -0.30129,3.61557 -0.25825,1.80779 -0.77474,1.80779 z m -17.21704,-18.938744 -1.07607,-8.608519 -0.73176,0.08611 q -3.78776,0.559552 -6.54248,1.506491 -2.71168,0.946937 -3.95992,1.979959 -1.24823,1.033022 -1.24823,2.023003 0,1.420405 1.80779,2.238214 1.85083,0.774767 6.54247,0.774767 z m -79.06924,-34.60625 7.40332,-7.403327 7.40332,7.403327 -7.40332,7.403327 z m -15.79664,42.353917 h 9.25416 q -3.52949,-4.476438 -3.52949,-9.942848 0,-8.092009 5.29424,-13.386248 5.33728,-5.337283 13.47233,-5.337283 9.21111,0 14.97883,7.058987 l 0.73176,0.903895 -0.55954,0.989979 -3.14212,5.724666 -1.07605,1.979959 -1.63562,-1.549534 q -3.91688,-3.744705 -9.082,-3.744705 -3.40036,0 -5.72466,2.023001 -2.28126,2.023003 -2.28126,5.294241 0,3.271237 3.44341,6.025963 3.22819,2.625599 4.77773,2.625599 1.29128,0 5.38033,-0.946935 l 9.12502,-2.195175 2.10909,-0.516514 v 2.195175 7.790714 1.29127 l -1.24824,0.34436 q -15.19404,4.56251 -26.94466,4.56251 h -13.34321 q -0.51649,0 -0.77473,-1.80779 -0.3013,-1.85083 -0.3013,-3.61557 v -0.47352 q 0,-1.67866 0.3013,-3.486454 0.3013,-1.807787 0.77473,-1.807787 z m -25.39516,25.438177 7.23116,-7.2742 7.2742,7.2742 q -0.25824,0.25824 -0.51649,0.55954 -0.55954,0.55954 -3.01298,2.96994 -2.45343,2.45343 -3.74471,3.74471 z m -15.58142,0 7.2742,-7.2742 7.23116,7.2742 -7.23116,7.2742 z m 41.45002,-14.2471 h -0.9039 q -8.35025,0 -12.48235,-4.82077 -4.82077,4.82077 -14.41926,4.82077 h -10.37327 q -0.51649,0 -0.77474,-1.80779 -0.30129,-1.85083 -0.30129,-3.61557 v -0.47352 q 0,-1.67866 0.30129,-3.486454 0.3013,-1.807787 0.77474,-1.807787 h 10.58847 q 4.90687,0 6.75769,-1.549533 1.89388,-1.549534 1.89388,-5.122068 V 79.546162 77.824458 h 1.7217 7.36029 1.7217 v 1.721704 11.104991 q 0,3.744702 1.46345,5.208151 1.50649,1.46345 5.72467,1.46345 h 0.94693 q 0.47343,0 0.77473,1.807787 0.3013,1.807799 0.3013,3.486449 v 0.47352 q 0,1.76474 -0.3013,3.61558 -0.25824,1.80778 -0.77473,1.80778 z m -37.79142,0 h -0.68871 q -4.73468,0 -7.66158,-1.50649 -0.94694,10.20109 -7.74766,15.79663 -6.75769,5.63858 -18.37919,5.81075 l -3.09907,0.0433 -1.76475,0.0433 v -1.7653 -7.53245 -1.72171 h 1.7217 3.01299 q 15.40925,0 15.40925,-13.98884 V 80.708312 78.986609 h 1.7217 7.53246 1.7217 v 1.721703 9.5985 q 0,3.701664 1.7217,5.380324 1.76475,1.635618 5.81075,1.635618 h 0.68871 q 0.47344,0 0.77474,1.807787 0.30129,1.807799 0.30129,3.486449 v 0.47352 q 0,1.76474 -0.30129,3.61558 -0.25825,1.80778 -0.77474,1.80778 z M 245.72252,51.095004 h 7.14507 1.7217 v 1.721704 53.932382 1.7217 h -1.7217 -7.14507 -1.7217 v -1.7217 -53.932382 -1.721704 z m -35.81145,46.22775 h 8.73764 q 4.04601,0 5.50946,-1.291272 1.46345,-1.291281 1.46345,-5.294244 V 78.082714 76.361009 h 1.7217 7.48941 1.72171 v 1.721705 12.697567 q 0,8.608521 -4.60556,13.171039 -4.60556,4.56251 -13.3432,4.56251 h -8.69461 q -0.51649,0 -0.77473,-1.80779 -0.3013,-1.85083 -0.3013,-3.61557 v -0.47352 q 0,-1.67866 0.3013,-3.486453 0.3013,-1.807786 0.77473,-1.807786 z m 11.06194,-34.692333 7.40334,-7.403327 7.40332,7.403327 -7.40332,7.403327 z m -31.55022,0.903894 7.23116,-7.274199 7.2742,7.274199 q -0.25824,0.258253 -0.51649,0.559552 -0.55954,0.559552 -3.01297,3.012982 -2.45343,2.410385 -3.74471,3.701664 z m -15.58142,0 7.2742,-7.274199 7.23116,7.274199 -7.23116,7.2742 z m 36.50013,44.979515 h -0.9039 q -8.35026,0 -12.48235,-4.82077 -4.82077,4.82077 -14.41927,4.82077 h -10.37326 q -0.51649,0 -0.77474,-1.80779 -0.3013,-1.85083 -0.3013,-3.61557 v -0.47352 q 0,-1.67866 0.3013,-3.486453 0.3013,-1.807786 0.77474,-1.807786 h 10.58847 q 4.90686,0 6.75769,-1.549534 1.89388,-1.549534 1.89388,-5.122068 V 79.546162 77.824458 h 1.7217 7.36029 1.7217 v 1.721704 11.104991 q 0,3.744702 1.46345,5.208151 1.50649,1.46345 5.72467,1.46345 h 0.94693 q 0.47343,0 0.77473,1.807787 0.3013,1.807799 0.3013,3.486449 v 0.47352 q 0,1.76474 -0.3013,3.61558 -0.25824,1.80778 -0.77473,1.80778 z m -66.54386,-49.455945 7.40333,-7.403327 7.40332,7.403327 -7.40332,7.403327 z m 28.7955,49.455945 h -5.85379 q -3.83079,0 -7.87679,-0.77473 -4.04602,-0.81779 -7.44637,-2.49647 -6.67161,3.27123 -15.36621,3.27123 h -7.8768 q -0.51649,0 -0.77473,-1.80778 -0.3013,-1.85084 -0.3013,-3.61558 v -0.47352 q 0,-1.67865 0.3013,-3.486448 0.3013,-1.807787 0.77473,-1.807787 h 9.12503 q -2.66864,-4.045994 -2.66864,-9.081978 0,-7.145072 4.90685,-12.051928 4.90686,-4.949899 12.00889,-4.949899 7.05898,0 11.96584,4.906857 4.90686,4.863813 4.90686,12.051928 0,5.079026 -2.6256,9.125029 h 6.80073 q 0.47343,0 0.77473,1.807787 0.3013,1.807799 0.3013,3.486449 v 0.47352 q 0,1.76474 -0.3013,3.61558 -0.25824,1.80778 -0.77473,1.80778 z m -14.8497,-20.23002 q 0,-2.539513 -1.76475,-4.30426 -1.76474,-1.764747 -4.47642,-1.764747 -2.79777,0 -4.56252,1.721705 -1.7217,1.678661 -1.7217,4.347302 0,2.453428 1.85083,4.261217 1.89387,1.80779 4.43339,1.80779 2.53951,0 4.39034,-1.764747 1.85083,-1.807789 1.85083,-4.30426 z m -29.09679,20.23002 h -1.97996 q -7.70463,0 -11.75063,-4.60556 -4.00296,-4.648599 -4.00296,-13.257117 V 52.859751 51.138047 h 1.7217 7.14507 1.72171 v 1.721704 37.834444 q 0,3.615576 1.24823,5.122072 1.29128,1.506487 4.046,1.506487 h 1.85084 q 0.47343,0 0.77473,1.807787 0.3013,1.807799 0.3013,3.486449 v 0.47352 q 0,1.76474 -0.3013,3.61558 -0.25825,1.80778 -0.77473,1.80778 z M 62.059744,97.322754 h 9.254159 q -3.529494,-4.476429 -3.529494,-9.942839 0,-8.092009 5.29424,-13.386248 5.337284,-5.337283 13.472337,-5.337283 9.21111,0 14.978824,7.058987 l 0.73168,0.903895 -0.55955,0.989979 -3.14211,5.724666 -1.076058,1.979959 -1.635627,-1.549534 q -3.916872,-3.744705 -9.081988,-3.744705 -3.400358,0 -5.724659,2.023001 -2.281263,2.023003 -2.281263,5.294241 0,3.271237 3.443414,6.025963 3.228189,2.625599 4.777723,2.625599 1.291281,0 5.380331,-0.946935 l 9.125027,-2.195175 2.10908,-0.516514 v 2.195175 7.790714 1.29127 l -1.24823,0.34436 q -15.194039,4.56251 -26.944665,4.56251 H 62.059744 q -0.516515,0 -0.774767,-1.80779 -0.3013,-1.85083 -0.3013,-3.61557 v -0.47352 q 0,-1.67866 0.3013,-3.486454 0.301299,-1.807787 0.774767,-1.807787 z m 0.430421,11.191076 h -0.602599 v 1.67866 q 0,8.60852 -6.62856,13.17104 -6.585518,4.56251 -18.72353,4.56251 h -4.132083 q -13.257121,0 -20.143937,-6.45639 -6.8437734,-6.45639 -6.8437734,-18.93874 V 87.853383 86.131679 h 1.7217041 l 7.5324553,0.04306 h 1.721703 v 1.721705 14.591436 q 0,7.31724 3.830792,10.76065 3.873834,3.48645 12.181056,3.48645 h 4.13209 q 3.271237,0 5.767708,-0.34436 2.496471,-0.30129 4.519472,-1.07606 2.023003,-0.73168 3.099068,-2.10909 1.076064,-1.37736 1.076064,-3.31428 v -1.37736 h -9.168073 q -1.979959,0 -3.056025,-1.16215 -1.076065,-1.16215 -1.807789,-3.91687 -0.98998,-3.529497 -0.645639,-4.82077 0.344341,-1.291281 2.539513,-1.291281 h 23.630387 q 0.473468,0 0.774767,1.807787 0.301299,1.807794 0.301299,3.486454 v 0.47352 q 0,1.76474 -0.301299,3.61557 -0.258253,1.80779 -0.774767,1.80779 z"
       id="text2"
       style="font-weight:bold;font-size:10.1756px;font-family:Shabnam;-inkscape-font-specification:'Shabnam Bold';text-align:center;text-anchor:middle;fill:#87decd;stroke-width:4.72236"
       aria-label="مدرسه غیرانتفاعی" /><path
       d="m 437.52736,293.06008 h 31.42033 q 5.01028,0 8.57691,-0.42457 3.56663,-0.50956 5.60471,-1.18888 2.03808,-0.76425 3.22695,-1.95316 1.18888,-1.18887 1.52856,-2.20791 0.33967,-1.10396 0.50955,-2.63251 -5.51978,0.42457 -9.51102,0.42457 -16.38953,0 -25.05136,-6.28407 -8.5769,-6.36899 -8.5769,-20.21092 0,-14.60622 8.5769,-24.03232 8.66183,-9.4261 23.69265,-9.4261 15.03081,0 23.26803,8.49198 8.32214,8.40706 8.32214,22.58868 v 27.08943 q 0,31.84494 -40.33692,31.84494 h -31.2505 q -1.01904,0 -1.52856,-3.56663 -0.59445,-3.65155 -0.59445,-7.13327 v -0.93412 q 0,-3.31187 0.59445,-6.8785 0.59446,-3.56664 1.52856,-3.56664 z m 40.16708,-46.62099 q -6.02931,0 -8.83166,2.71744 -2.80236,2.71743 -2.80236,8.49198 0,4.16107 2.46267,5.43487 2.46268,1.27379 11.03959,1.27379 4.16107,0 8.91657,-0.50947 v -7.89754 q 0,-4.67059 -2.54758,-7.04835 -2.5476,-2.46268 -8.23723,-2.46268 z m -14.77606,-46.02656 14.60622,-14.60621 14.60621,14.60621 -14.60621,14.60622 z m -24.45691,114.72671 h -3.90631 q -15.20066,0 -23.18312,-9.08642 -7.89755,-9.17135 -7.89755,-26.15531 v -74.55963 -3.39679 h 3.3968 14.09669 3.3968 v 3.39679 74.64454 q 0,7.13328 2.46267,10.10546 2.5476,2.9722 7.98246,2.9722 h 3.65156 q 0.93412,0 1.52855,3.56664 0.59446,3.56663 0.59446,6.8785 v 0.93412 q 0,3.48172 -0.59446,7.13327 -0.50955,3.56663 -1.52855,3.56663 z m -101.39431,18.17285 q 30.40131,0 30.40131,-27.59895 v -45.3472 -3.39679 h 3.39679 l 14.77604,-0.0849 h 3.3968 v 3.3968 45.43212 q 0,23.09819 -13.50226,36.00601 -13.50225,12.99273 -38.29884,13.16257 l -6.02931,0.0849 -3.48172,0.0849 v -3.48172 -14.86097 -3.39679 h 3.3968 z M 317.5356,201.85617 h 14.0967 3.39678 v 3.3968 106.40456 3.39679 h -3.39678 -14.0967 -3.39679 v -3.39679 -106.40456 -3.3968 z m -70.65331,91.20391 h 17.23873 q 7.98246,0 10.86974,-2.5476 2.88727,-2.54759 2.88727,-10.44513 v -24.96644 -3.39679 h 3.3968 14.77605 3.39679 v 3.39679 25.05136 q 0,16.98396 -9.08642,25.98547 -9.08642,9.0015 -26.32515,9.0015 h -17.15381 q -1.01904,0 -1.52856,-3.56663 -0.59445,-3.65155 -0.59445,-7.13327 v -0.93412 q 0,-3.31187 0.59445,-6.8785 0.59446,-3.56664 1.52856,-3.56664 z m 4.50075,50.18763 14.60622,-14.60622 14.60621,14.60622 -14.60621,14.60621 z m -13.33241,-28.10847 h -1.18887 v 3.31188 q 0,16.98397 -13.07766,25.98547 -12.99274,9.0015 -36.94013,9.0015 h -8.15231 q -26.1553,0 -39.74248,-12.73798 -13.50226,-12.73797 -13.50226,-37.36473 v -28.95766 -3.3968 h 3.3968 l 14.86097,0.0849 h 3.39679 v 3.39679 28.78783 q 0,14.43637 7.55787,21.22996 7.64279,6.8785 24.03231,6.8785 h 8.15231 q 6.45391,0 11.37926,-0.67935 4.92535,-0.59446 8.91658,-2.123 3.99124,-1.44364 6.11423,-4.16107 2.123,-2.71744 2.123,-6.53883 v -2.71743 h -18.08793 q -3.90631,0 -6.02931,-2.29284 -2.123,-2.29284 -3.56663,-7.7277 -1.95316,-6.96344 -1.2738,-9.51103 0.67936,-2.54759 5.01027,-2.54759 h 46.62099 q 0.93413,0 1.52856,3.56663 0.59446,3.56663 0.59446,6.8785 v 0.93413 q 0,3.48171 -0.59446,7.13326 -0.50955,3.56664 -1.52856,3.56664 z m 10.53006,-22.07916 q 0.50956,0 0.84924,3.56664 0.33967,3.56663 0.33967,6.8785 v 0.93412 q 0,3.48172 -0.33967,7.13327 -0.33968,3.56663 -0.84924,3.56663 h -12.65305 q -0.59445,0 -0.93412,-3.56663 -0.25478,-3.65155 -0.25478,-7.13327 v -0.93412 q 0,-3.31187 0.25478,-6.8785 0.33968,-3.56664 0.93412,-3.56664 z"
       id="text2-3"
       style="font-weight:bold;font-size:20.0757px;font-family:Shabnam;-inkscape-font-specification:'Shabnam Bold';text-align:center;text-anchor:middle;fill:#00d4aa;stroke-width:9.31688"
       aria-label="فارابی" /><path
       style="fill:#ffffff;stroke-width:0.332079;fill-opacity:1"
       d="m 869.0316,359.05478 -1.52071,-0.25729 -1.46794,-0.74779 -1.46795,-0.74779 -3.98498,-2.51172 -3.98487,-2.51178 -1.73338,-1.26222 -1.73338,-1.26217 -2.28669,-1.91525 -2.28669,-1.91526 -2.75241,-2.48173 -2.75232,-2.48179 -0.36731,-0.34228 -0.36731,-0.34227 -4.81256,-4.14069 -4.81264,-4.14068 -0.79353,-0.6641 -0.79353,-0.66419 -0.37771,-0.3324 -0.37684,-0.3318 -1.49697,-1.32834 -1.49688,-1.32827 -2.12148,-1.82643 -2.12157,-1.8265 -0.36038,-0.33482 -0.36038,-0.33483 -2.98874,-2.62294 -2.98873,-2.62294 -2.29605,-2.02316 -2.29604,-2.02309 -0.36298,-0.3324 -0.36298,-0.3318 -3.89835,-3.60976 -3.89852,-3.60984 -1.08036,-2.19496 -1.08037,-2.19502 0.0347,-2.99528 0.0347,-2.99534 0.83251,-2.22358 0.83252,-2.22364 1.45902,-2.55111 1.45902,-2.55111 2.65668,-3.15206 2.6566,-3.15205 1.26203,-1.53744 1.26202,-1.5375 0.3985,-0.5047 0.3985,-0.50471 1.34346,-1.81997 1.34337,-1.81991 1.36009,-2.17599 1.35992,-2.17606 1.48622,-2.97122 1.48623,-2.97121 2.51469,-6.30947 2.51461,-6.30948 0.67052,-2.51608 0.67052,-2.51609 0.38117,-3.12928 0.38117,-3.12929 -0.20271,-2.82268 -0.20272,-2.82262 -0.50072,-16.60395 -0.50072,-16.60396 -0.49639,-15.77378 -0.49639,-15.77378 -0.30581,-6.80763 -0.3058,-6.80756 -0.42016,-14.90077 -0.42015,-14.90075 0.60121,-0.44008 0.60121,-0.44008 1.04034,-0.93944 1.04052,-0.93944 6.08688,-5.08122 6.08689,-5.08123 0.85417,-0.72189 0.85417,-0.72197 0.82818,-0.7471 0.82819,-0.74718 h 0.26855 0.26855 l 0.21831,1.16171 0.21831,1.16165 0.052,56.86916 0.0433,56.86917 -0.42102,6.97364 -0.42102,6.97364 -0.34999,1.9925 -0.34998,1.99244 -1.48562,3.15477 -1.48553,3.15477 -0.76841,1.16227 -0.76841,1.16226 -3.7568,5.64537 -3.75679,5.6453 -1.17419,1.66042 -1.17418,1.66042 -1.12853,1.66036 -1.12853,1.66042 -1.2719,2.5255 -1.2719,2.52544 -0.9337,2.78779 -0.9337,2.78778 6.1e-4,3.48685 6.9e-4,3.48685 0.99538,1.80662 0.99546,1.80666 3.03024,3.34054 3.03031,3.34061 2.44903,2.51078 2.44903,2.51079 2.9799,2.63642 2.9799,2.63648 2.49937,2.35174 2.49945,2.3518 2.15847,1.93587 2.15856,1.93588 2.825,2.68597 2.8251,2.68603 1.32594,1.12293 1.32587,1.12293 1.66035,1.53577 1.66044,1.53571 1.32838,1.12373 1.32821,1.12374 1.99657,1.87087 1.99639,1.87087 2.74322,2.08823 2.74314,2.08815 2.06803,1.0407 2.06795,1.04069 2.19321,0.13601 2.19321,0.13541 1.19307,-0.78193 1.19316,-0.78192 0.72336,-1.44744 0.72249,-1.44751 -0.15507,-2.37143 -0.15506,-2.37143 -1.10384,-1.82643 -1.10393,-1.82643 -0.52584,-0.62253 -0.52585,-0.62261 -7.96987,-7.66144 -7.96988,-7.66145 -3.16381,-3.00667 -3.16382,-3.00666 -2.65781,-2.49055 -2.6577,-2.49059 -5.46792,-4.81519 -5.468,-4.81513 -1.40851,-1.45323 -1.40852,-1.45323 -0.91724,-1.86755 -0.91715,-1.86755 10e-4,-3.65292 9.5e-4,-3.65286 1.22772,-2.49061 1.22772,-2.49053 2.37548,-2.98876 2.3754,-2.9887 0.77534,-0.99625 0.77534,-0.99625 1.49514,-1.99244 1.49524,-1.99251 3.09165,-3.99129 3.09163,-3.99129 0.66446,-0.78816 0.66445,-0.78816 1.32838,-1.54322 1.3283,-1.54316 1.53318,-1.81332 1.53309,-1.81332 2.28573,-2.68788 2.28574,-2.68782 4.31703,-5.08824 4.31704,-5.08824 0.33265,-0.36194 0.33266,-0.36194 1.65299,-1.99023 1.65308,-1.99022 0.18452,-0.16624 0.18452,-0.16616 1.27407,-1.57739 1.27398,-1.57732 h 0.40109 0.4011 l 1.76076,1.9094 1.76067,1.90948 3.55902,3.81893 3.55893,3.81887 0.98135,1.16233 0.98143,1.16227 2.32853,2.98869 2.32852,2.98869 2.69394,3.81894 2.69393,3.81887 1.82686,3.48685 1.82694,3.48685 1.47938,3.98496 1.47929,3.98494 0.84984,3.15477 0.84984,3.15471 0.59602,2.98875 0.59688,2.9887 -0.0173,8.1359 -0.0173,8.13597 -0.73809,4.15096 -0.73809,4.15101 -0.81259,3.087 -0.81259,3.087 -1.32977,3.38856 -1.32986,3.38855 -2.95503,5.51074 -2.95513,5.51075 -2.24839,3.6214 -2.24831,3.62142 -0.61074,0.68559 -0.60988,0.68559 v 0.3939 0.39391 h -0.27895 -0.27895 l -0.40802,0.89536 -0.40803,0.89537 -4.19575,5.82923 -4.19584,5.82929 -2.34291,2.98869 -2.34282,2.9887 -0.82732,0.97551 -0.82732,0.97544 -2.00834,2.34534 -2.00834,2.34532 -1.81057,1.22413 -1.81057,1.22413 -1.3924,0.35327 -1.39232,0.35328 -2.26052,-0.0372 -2.26053,-0.0373 z m 32.49336,-51.31865 1.23015,-0.51398 0.79179,-0.73133 0.7918,-0.73133 0.61594,-1.41944 0.61594,-1.41937 0.40716,-2.81585 0.40716,-2.81586 -0.39243,-6.72336 -0.39243,-6.72336 -0.50766,-3.65287 -0.50765,-3.65286 -0.81865,-3.65286 -0.81866,-3.65286 -0.81432,-2.93305 -0.81432,-2.93305 -1.15487,-2.43201 -1.15495,-2.432 -1.66459,-2.46671 -1.66451,-2.46672 -1.75313,-1.57628 -1.75313,-1.57621 -1.34572,-0.71695 -1.34562,-0.71695 -2.65902,6.8e-4 -2.65902,6.8e-4 -1.49922,0.87862 -1.49939,0.87868 -2.31718,2.39175 -2.31727,2.39174 -0.33613,0.37857 -0.33612,0.37857 -3.01039,3.48679 -3.01048,3.48686 -1.83361,2.32681 -1.8337,2.32686 -0.60555,1.15999 -0.60554,1.15998 10e-4,1.99251 10e-4,1.99244 0.92685,1.9925 0.92686,1.99244 6.03906,5.97746 6.03889,5.97739 7.48397,7.32198 7.48388,7.32197 1.94519,1.29116 1.94519,1.29122 1.17852,0.42163 1.17851,0.42162 0.0936,0.0121 0.0936,0.0121 z m -183.28312,48.86818 -1.54671,-0.41669 -1.77742,-1.0772 -1.77741,-1.07725 -2.29502,-2.15292 -2.29503,-2.15292 -2.16681,-1.89315 -2.16681,-1.89322 -1.84434,-1.6433 -1.84434,-1.64331 -0.36567,-0.34903 -0.36566,-0.34904 -2.78915,-2.51953 -2.78914,-2.51947 -3.83775,-3.45792 -3.83774,-3.45792 -4.62031,-4.15102 -4.62031,-4.15096 -0.52541,-0.49794 -0.52541,-0.49795 -2.97138,-2.64732 -2.97137,-2.64731 -1.49435,-1.36841 -1.49436,-1.36847 -1.99247,-1.77546 -1.99248,-1.77547 -2.52006,-2.57068 -2.52007,-2.57062 -1.3882,-2.76279 -1.3882,-2.76273 -0.35224,-1.96192 -0.35223,-1.96185 0.22636,-1.95065 0.22636,-1.95071 1.43044,-2.93895 1.43043,-2.93896 2.73787,-4.60523 2.73786,-4.60522 6.77252,-10.12841 6.77252,-10.12841 1.3953,-1.92739 1.39529,-1.92744 1.49435,-1.00203 1.49436,-1.0021 0.98711,0.19639 0.98711,0.19639 1.11564,1.07282 1.11564,1.07277 0.34332,0.63118 0.34331,0.6311 -0.0173,1.2272 -0.0173,1.22721 -0.99303,1.68418 -0.99303,1.68418 -2.97173,4.42734 -2.97173,4.42739 -1.32937,2.65662 -1.32937,2.65667 -0.95387,2.82262 -0.95388,2.82269 v 4.00839 4.0084 l 1.39497,2.81678 1.39498,2.81677 2.04359,2.87297 2.04359,2.87298 3.0386,2.92086 3.03859,2.92087 1.10384,0.83026 1.10385,0.83017 4.20781,3.43632 4.2078,3.43637 4.31703,3.54343 4.31703,3.54342 1.60959,1.32217 1.60959,1.32224 0.91588,0.6642 0.9159,0.6641 1.49548,1.32833 1.49546,1.32835 6.51853,5.26994 6.51853,5.26995 1.1159,0.59835 1.11589,0.59827 1.40107,0.37736 1.40105,0.37736 1.50187,-0.72709 1.50187,-0.72699 0.99393,-1.3673 0.99393,-1.36724 0.47057,-1.11985 0.47058,-1.11979 v -1.47699 -1.47699 l -1.00203,-1.45637 -1.00202,-1.45643 -0.61091,-0.42969 -0.61092,-0.42968 -2.10743,-1.82643 -2.10744,-1.82643 -0.51475,-0.49795 -0.51467,-0.49795 -6.45593,-5.47929 -6.45591,-5.47929 -3.37159,-2.82269 -3.37159,-2.82268 -2.7904,-2.53344 -2.79039,-2.53345 -1.16228,-0.95132 -1.16228,-0.95125 -0.36384,-0.33422 -0.36393,-0.33422 -2.62484,-2.31887 -2.62484,-2.31892 -2.98871,-3.00944 -2.98871,-3.00944 -0.9253,-1.86841 -0.92531,-1.86841 -0.38853,-1.85241 -0.38854,-1.8524 0.39235,-1.87051 0.39235,-1.87051 0.67103,-1.38613 0.67104,-1.38614 0.58553,-0.64522 0.58553,-0.64531 1.15452,-1.49435 1.15451,-1.49435 0.33691,-0.381 0.3369,-0.381 2.65663,-3.41058 2.65663,-3.41065 3.42897,-4.17822 3.42898,-4.17829 0.38992,-0.49916 0.38992,-0.49925 1.1575,-1.49323 1.1575,-1.49325 0.3369,-0.37051 0.33682,-0.37052 2.38947,-2.94998 2.38947,-2.94991 3.53744,-4.31704 3.53743,-4.31702 3.36587,-4.15097 3.36588,-4.15101 2.15732,-2.12879 2.15732,-2.12884 1.73564,-0.79457 1.73565,-0.79457 1.19502,0.22402 1.19503,0.22403 1.89111,1.4118 1.89111,1.41187 1.20033,1.2874 1.20033,1.2874 0.87517,1.32243 0.87516,1.32236 v 1.42092 1.42085 l -0.67416,1.40774 -0.67415,1.40768 -3.2643,4.05986 -3.2643,4.05986 -2.12199,2.37561 -2.12199,2.37562 -0.83018,1.01976 -0.83017,1.01977 -2.4906,2.83925 -2.49059,2.83917 -0.87219,0.99626 -0.87218,0.99624 -4.76494,5.4793 -4.76493,5.4793 -4.79447,5.31328 -4.79447,5.31328 -0.97651,1.32827 -0.97652,1.32835 -0.96185,1.96831 -0.96183,1.96831 v 1.44652 1.44658 l 0.79405,1.56631 0.79405,1.56637 3.9381,3.80914 3.9381,3.80915 6.81726,5.98718 6.81728,5.98717 1.76856,1.49435 1.76856,1.49435 0.87843,0.75715 0.87842,0.75714 4.48198,3.72587 4.48198,3.72593 2.18121,2.15851 2.18122,2.15852 1.12601,2.28784 1.12602,2.28778 v 2.21046 2.21053 l -0.4607,1.147 -0.4607,1.14706 -1.51711,2.10933 -1.51711,2.10934 -3.3473,4.53672 -3.3473,4.53672 -2.46408,2.24247 -2.46409,2.24253 -1.6604,0.81701 -1.6604,0.81701 -2.42928,0.50601 -2.42928,0.506 -2.38586,-0.0242 -2.38586,-0.0243 z m 35.58143,-35.48615 -1.09784,-0.74718 -0.65804,-0.88847 -0.65804,-0.88848 -0.14692,-1.60213 -0.14693,-1.60212 1.9033,-2.82263 1.90329,-2.82268 0.20151,-0.16624 0.2015,-0.16616 1.82437,-2.15094 1.82436,-2.15101 0.66419,-0.81276 0.6642,-0.81285 1.49436,-1.6997 1.49436,-1.69969 2.86664,-3.47251 2.86664,-3.47245 3.90671,-4.64912 3.90668,-4.64911 0.20705,-0.16616 0.20704,-0.16624 3.14138,-3.81888 3.14138,-3.81893 0.17845,-0.16616 0.17846,-0.16624 2.29769,-2.82269 2.29769,-2.82268 2.04213,-2.32453 2.04213,-2.32452 1.73884,-2.32459 1.73883,-2.32452 0.41583,-0.5171 0.41582,-0.51709 1.51577,-2.16855 1.51576,-2.16861 2.17355,-4.28792 2.17363,-4.28798 0.91923,-2.98869 0.91915,-2.9887 0.0173,-9.27305 0.009,-9.273 5.8114,-4.58657 5.81131,-4.58664 0.19665,-0.005 0.19665,-0.005 0.22004,10.37745 0.22004,10.37752 -0.3136,2.69404 -0.3136,2.69404 -0.68784,2.76457 -0.68784,2.76458 -1.64926,3.45262 -1.64935,3.45269 -1.24228,2.04736 -1.24218,2.04728 -2.34127,3.32084 -2.34135,3.32078 -1.65368,2.28359 -1.65359,2.28366 -3.15481,4.07795 -3.15472,4.07796 -2.49052,3.2431 -2.49062,3.2431 -0.33612,0.35761 -0.33612,0.35761 -4.5052,5.81138 -4.50528,5.81138 -4.14516,5.47929 -4.14506,5.4793 -3.83464,4.98119 -3.83462,4.9812 -2.45454,2.63113 -2.45454,2.63112 -1.47634,0.93871 -1.47635,0.93876 h -1.54628 -1.54628 z m -17.90143,-21.69743 -1.79896,-0.48383 -1.75725,-1.00536 -1.75725,-1.00543 -1.38833,-1.56082 -1.38832,-1.56077 -0.93726,-1.9925 -0.93728,-1.99245 -0.3868,-2.36804 -0.3868,-2.36798 0.57392,-2.61322 0.57392,-2.61316 0.84187,-1.56377 0.84187,-1.56373 1.67069,-1.66195 1.67068,-1.66196 2.47454,-1.22265 2.47454,-1.22271 3.03213,-0.15385 3.03214,-0.15386 2.13098,0.72276 2.13097,0.72284 1.52189,1.01189 1.5219,1.01182 1.41011,1.53953 1.4101,1.53958 1.04493,2.49061 1.04493,2.49059 0.16053,2.20457 0.16052,2.20462 -0.41738,1.78032 -0.41738,1.7804 -0.97211,1.99243 -0.97211,1.99251 -1.55815,1.60471 -1.55814,1.60478 -1.66041,0.85278 -1.66039,0.85279 -1.6604,0.44441 -1.66039,0.44441 -2.32455,-0.0182 -2.32456,-0.0182 z m 194.12545,-27.48364 -0.21658,-4.76544 -0.49899,-2.85882 -0.49812,-2.85876 -0.51631,-1.59092 -0.51632,-1.59099 -2.81236,-5.69 -2.81235,-5.68999 2.249,-2.13845 2.249,-2.13845 2.49061,-2.28279 2.49053,-2.28273 8.15362,-7.70041 8.15361,-7.70047 2.49018,-2.77726 2.4901,-2.77725 1.0192,-1.32828 1.0192,-1.32834 1.03904,-2.06606 1.03913,-2.066 -0.003,-1.25478 -0.003,-1.25478 -0.82472,-1.77122 -0.82472,-1.77128 -2.29864,-3.0439 -2.29864,-3.04385 -11.23591,-11.16831 -11.236,-11.16823 -8.80005,-8.69519 -8.80014,-8.69518 -25.17856,-25.13326 -25.17789,-25.13325 -18.69682,-18.928551 -18.69675,-18.9285 -0.9304,-1.112379 -0.93032,-1.112386 -2.6067,-2.104619 -2.6067,-2.104619 -1.90196,-0.933991 -1.90205,-0.933984 -2.49061,0.01109 -2.49053,0.01109 -1.49437,0.782347 -1.49437,0.782356 -1.9924,1.436241 -1.99258,1.43624 -26.40024,26.259154 -26.40029,26.259131 -26.66976,26.47045 -26.66975,26.47046 -14.22584,14.11336 -14.22584,14.11335 -1.1647,2.04082 -1.1647,2.04083 -0.38186,1.8396 -0.38187,1.8396 0.23356,1.26679 0.23355,1.26678 0.81346,1.72831 0.81345,1.72826 2.415,2.42271 2.41498,2.4227 3.29514,2.98875 3.29513,2.9887 1.48088,1.7498 1.48089,1.74974 0.93541,1.63659 0.93541,1.6366 0.18816,1.82323 0.18816,1.82317 -0.567,1.43206 -0.56699,1.43198 -1.5399,1.99245 -1.53989,1.99251 -0.18002,0.16616 -0.18002,0.16624 -2.3696,2.82268 -2.36959,2.82262 -0.61802,0.6687 -0.61801,0.6687 -2.44276,2.73509 -2.44276,2.73509 h -0.27479 -0.27479 l -1.76583,-1.69652 -1.76555,-1.69661 -5.31444,-5.19405 -5.31445,-5.19406 -10.92666,-10.62651 -10.92666,-10.62656 -2.14182,-2.15851 -2.14181,-2.15852 -0.68594,-1.32828 -0.68593,-1.32833 -0.12683,-2.65668 -0.12683,-2.65661 1.02107,-1.74339 1.02106,-1.74346 h 0.32539 0.32538 v -0.36991 -0.37052 l 3.40029,-3.8638 3.40029,-3.86375 25.80088,-25.73611 25.80091,-25.73618 42.44488,-42.30061 42.44489,-42.300649 20.30756,-20.24779 20.30763,-20.247794 0.50506,0.283644 0.50505,0.283583 63.15916,62.928992 63.15909,62.928964 19.13847,19.01941 19.13839,19.01939 2.15856,2.11494 2.15848,2.115 5.35235,5.43196 5.35226,5.43195 1.37724,2.13457 1.37716,2.13458 0.65925,2.13445 0.65926,2.13438 v 2.11685 2.11678 l -0.5527,1.41808 -0.5527,1.41808 -1.8434,2.15852 -1.8434,2.15845 -4.66052,4.75788 -4.66052,4.75782 -13.11709,13.07076 -13.11717,13.07069 -3.48677,3.36923 -3.48686,3.36921 -5.50811,5.36857 -5.5082,5.36855 -2.66508,2.57357 -2.66517,2.57364 h -0.3266 -0.32659 z m -159.61058,-5.11391 0.006,-0.24932 1.16639,-3.65286 1.1664,-3.65286 0.63335,-3.15476 0.63335,-3.15471 0.34999,-3.81894 0.34998,-3.81894 0.3266,-9.04314 0.32659,-9.04315 -0.16633,-3.07771 -0.16633,-3.07776 -0.82731,-19.09456 -0.82732,-19.09456 -0.66151,-14.11335 -0.66159,-14.11336 -0.51034,-10.62651 -0.51034,-10.62656 -0.26916,-4.40143 -0.26916,-4.40142 0.0355,-1.38299 0.0355,-1.383 2.82268,-2.49226 2.82266,-2.49226 5.42807,-4.84042 5.42806,-4.84043 h 0.38377 0.38377 l 0.078,4.15096 0.078,4.15102 0.66879,51.80431 0.66878,51.80438 -10e-4,9.15326 -0.001,9.15328 -0.48166,3.63175 -0.48166,3.63181 -0.86864,2.98684 -0.86855,2.98686 -1.03073,1.82827 -1.03081,1.82828 -1.00084,1.32834 -1.00083,1.32833 -2.67843,2.68001 -2.67843,2.68006 -2.98871,2.37617 -2.98871,2.37617 -0.41513,0.006 -0.41514,0.006 z m 109.24787,-61.99279 -1.49428,-0.41609 -1.41069,-0.7231 -1.41059,-0.7231 -1.82807,-1.85751 -1.82807,-1.85758 -1.02708,-2.15212 -1.02717,-2.15211 -0.34133,-2.30243 -0.34132,-2.30242 0.40196,-2.0665 0.40197,-2.06655 0.95483,-2.01245 0.95475,-2.01238 1.99319,-1.9011 1.99309,-1.90117 2.25403,-1.06765 2.25403,-1.06765 h 3.81891 3.81891 l 2.20517,1.07885 2.20516,1.07893 1.61375,1.45827 1.61374,1.45828 1.12472,1.87105 1.1248,1.87113 0.44701,1.90121 0.44788,1.90129 0.005,1.94455 0.005,1.94456 -0.51631,1.99299 -0.51632,1.993 -0.85071,1.37573 -0.8507,1.37568 -1.20659,1.27594 -1.20667,1.27596 -1.35584,0.94337 -1.35585,0.94339 -2.03745,0.68637 -2.03745,0.68637 -2.75016,-0.0312 -2.75015,-0.0312 z"
       id="path2" /></g></svg>
