<?xml version="1.0" encoding="UTF-8" standalone="no"?>
<!-- Created with Inkscape (http://www.inkscape.org/) -->

<svg
   width="200mm"
   height="96.5mm"
   viewBox="0 0 200 96.5"
   version="1.1"
   id="svg1"
   inkscape:version="1.3.1 (9b9bdc1480, 2023-11-25, custom)"
   sodipodi:docname="logo.svg"
   xmlns:inkscape="http://www.inkscape.org/namespaces/inkscape"
   xmlns:sodipodi="http://sodipodi.sourceforge.net/DTD/sodipodi-0.dtd"
   xmlns="http://www.w3.org/2000/svg"
   xmlns:svg="http://www.w3.org/2000/svg">
  <sodipodi:namedview
     id="namedview1"
     pagecolor="#ffffff"
     bordercolor="#000000"
     borderopacity="0.25"
     inkscape:showpageshadow="2"
     inkscape:pageopacity="0.0"
     inkscape:pagecheckerboard="0"
     inkscape:deskcolor="#d1d1d1"
     inkscape:document-units="mm"
     showguides="true"
     inkscape:zoom="0.7198092"
     inkscape:cx="396.63288"
     inkscape:cy="561.25984"
     inkscape:window-width="1920"
     inkscape:window-height="1011"
     inkscape:window-x="0"
     inkscape:window-y="32"
     inkscape:window-maximized="1"
     inkscape:current-layer="g1" />
  <defs
     id="defs1">
    <rect
       x="5.5908184"
       y="149.76668"
       width="1097.5261"
       height="443.97214"
       id="rect1" />
  </defs>
  <g
     inkscape:label="Layer 1"
     inkscape:groupmode="layer"
     id="layer1">
    <g
       id="g1"
       transform="translate(-39.013676,-8.4279078)">
      <g
         id="text1"
         style="font-weight:600;font-size:85.3333px;font-family:FreeSans;-inkscape-font-specification:'FreeSans Semi-Bold';white-space:pre;fill:#ffffff"
         transform="matrix(0.32546798,0,0,0.32546798,-41.410644,-47.699236)"
         aria-label="دبیرستان دوره‌دوم&#10;فارابی">
        <path
           style="font-weight:bold;font-family:Shabnam;-inkscape-font-specification:'Shabnam Bold';text-align:center;text-anchor:middle;fill:#ffffff"
           d="m 841.60341,228.70088 h -15.16666 -1.66666 v -1.66667 -7.49999 -1.66667 h 1.66666 15.20833 q 9.33333,0 9.33333,-3.33333 0,-1.08334 -0.95833,-2.83333 -0.91667,-1.79167 -2.66667,-3.83334 l -11.66666,-13.45832 -0.95833,-1.08334 0.95833,-1.125 5.04166,-5.66666 1.29167,-1.41667 1.20833,1.45834 12.41666,14.49999 q 5.95833,6.95833 5.95833,13.70833 0,6.29166 -5.29166,10.12499 -5.25,3.79167 -14.70833,3.79167 z m -47.74997,-10.83333 h 8.45833 q 3.91667,0 5.33333,-1.25 1.41667,-1.25 1.41667,-5.125 v -12.24999 -1.66667 h 1.66666 7.25 1.66667 v 1.66667 12.29166 q 0,8.33333 -4.45833,12.74999 -4.45834,4.41667 -12.91667,4.41667 h -8.41666 q -0.5,0 -0.75,-1.75 -0.29166,-1.79167 -0.29166,-3.5 v -0.45833 q 0,-1.625 0.29166,-3.375 0.29167,-1.75 0.75,-1.75 z m 2.20833,24.62499 7.16667,-7.16666 7.16666,7.16666 -7.16666,7.16666 z m -26.79163,0 7,-7.04166 7.04166,7.04166 q -0.25,0.25 -0.5,0.54167 -0.54166,0.54166 -2.91666,2.87499 -2.375,2.375 -3.625,3.625 z m -15.08332,0 7.04166,-7.04166 7,7.04166 -7,7.04166 z m 40.12498,-13.79166 h -0.875 q -8.08333,0 -12.08333,-4.66667 -4.66666,4.66667 -13.95833,4.66667 h -10.04166 q -0.5,0 -0.75,-1.75 -0.29166,-1.79167 -0.29166,-3.5 v -0.45833 q 0,-1.625 0.29166,-3.375 0.29167,-1.75 0.75,-1.75 h 10.25 q 4.75,0 6.54166,-1.5 1.83333,-1.5 1.83333,-4.95833 v -10.75 -1.66666 h 1.66667 7.125 1.66666 v 1.66666 10.75 q 0,3.625 1.41667,5.04166 1.45833,1.41667 5.54166,1.41667 h 0.91667 q 0.45833,0 0.75,1.75 0.29167,1.75 0.29167,3.375 v 0.45833 q 0,1.70833 -0.29167,3.5 -0.25,1.75 -0.75,1.75 z m -36.58338,0 h -0.66667 q -4.58333,0 -7.41666,-1.45833 -0.91667,9.87499 -7.5,15.29166 -6.54166,5.45833 -17.79166,5.62499 l -3,0.0417 -1.70833,0.0417 v -1.70834 -7.29166 -1.66667 h 1.66666 2.91667 q 14.91666,0 14.91666,-13.54166 v -22.24999 -1.66666 h 1.66667 7.29166 1.66667 v 1.66666 9.29167 q 0,3.58333 1.66666,5.20833 1.70833,1.58333 5.625,1.58333 h 0.66667 q 0.45833,0 0.75,1.75 0.29166,1.75 0.29166,3.375 v 0.45833 q 0,1.70833 -0.29166,3.5 -0.25,1.75 -0.75,1.75 z m -98.12495,-10.83333 h 3.95833 q 4.375,0 6.29167,-1.54167 1.91666,-1.58333 1.91666,-4.87499 v -10.83333 -1.66667 h 1.66667 7.125 1.66666 v 1.66667 l 0.0417,10.91666 q 0.0417,3.41666 1.41667,4.875 1.41666,1.45833 4.70833,1.45833 3.04166,0 4.41666,-1.45833 1.41667,-1.5 1.41667,-4.91667 l 0.0417,-10.87499 v -1.66667 h 1.66667 7.08333 1.66667 v 1.66667 l 0.0417,10.79166 q 0.0417,3.5 1.41667,4.95833 1.375,1.45833 4.45833,1.45833 2.33333,0 3.375,-1.375 1.04167,-1.375 1.04167,-4.87499 v -12.29167 -1.66666 h 1.66666 7.29167 1.66666 v 1.66666 12.625 q 0,7.79166 -3.91666,12.29166 -3.91667,4.5 -10.875,4.5 -7.20833,0 -11.12499,-4.66667 -3.95834,4.66667 -11.5,4.66667 -6.95833,0 -11.08333,-4.79167 -4.45833,4.79167 -13.62499,4.79167 h -3.91667 q -0.5,0 -0.75,-1.75 -0.29166,-1.79167 -0.29166,-3.5 v -0.45833 q 0,-1.625 0.29166,-3.375 0.29167,-1.75 0.75,-1.75 z m -19.83333,-32.70832 7,-7.04166 7.04166,7.04166 q -0.25,0.25 -0.5,0.54167 -0.54166,0.54166 -2.91666,2.91666 -2.375,2.33333 -3.625,3.58333 z m -15.08333,0 7.04167,-7.04166 7,7.04166 -7,7.04166 z m 35.33332,43.54165 h -0.875 q -8.08333,0 -12.08332,-4.66667 -4.66667,4.66667 -13.95833,4.66667 h -10.04166 q -0.5,0 -0.75,-1.75 -0.29167,-1.79167 -0.29167,-3.5 v -0.45833 q 0,-1.625 0.29167,-3.375 0.29166,-1.75 0.75,-1.75 h 10.24999 q 4.75,0 6.54167,-1.5 1.83333,-1.5 1.83333,-4.95833 v -10.75 -1.66666 h 1.66666 7.125 1.66667 v 1.66666 10.75 q 0,3.625 1.41666,5.04166 1.45834,1.41667 5.54167,1.41667 h 0.91666 q 0.45834,0 0.75,1.75 0.29167,1.75 0.29167,3.375 v 0.45833 q 0,1.70833 -0.29167,3.5 -0.25,1.75 -0.75,1.75 z m -36.49999,0 h -1.91667 q -7.45833,0 -11.37499,-4.45833 -3.875,-4.5 -3.875,-12.83333 v -36.58332 -1.66666 h 1.66667 6.91666 1.66667 v 1.66666 36.62499 q 0,3.49999 1.20833,4.95833 1.25,1.45833 3.91666,1.45833 h 1.79167 q 0.45833,0 0.75,1.75 0.29167,1.75 0.29167,3.375 v 0.45833 q 0,1.70833 -0.29167,3.5 -0.25,1.75 -0.75,1.75 z m -59.29164,-28.99999 7.16667,-7.16666 7.16666,7.16666 -7.16666,7.16666 z m 35.04166,1.04167 v 24.12499 q -0.25,11.12499 -7.04167,16.83332 -6.79166,5.70833 -19.33332,5.70833 h -2.125 q -12.875,0 -19.62499,-6.24999 -6.75,-6.20833 -6.75,-18.33333 v -14.20833 -1.66666 h 1.66666 7.25 1.66667 v 1.66666 14.16666 q 0,7.08333 3.79166,10.45833 3.83333,3.375 12,3.375 h 2.125 q 8.20833,0 11.95832,-2.875 3.75,-2.83333 3.75,-8.66666 v -24.33332 -1.66667 h 1.66667 7.33333 1.66667 z m -103.20828,27.95832 h -15.16666 -1.66667 v -1.66667 -7.49999 -1.66667 h 1.66667 15.20833 q 9.33332,0 9.33332,-3.33333 0,-1.08334 -0.95833,-2.83333 -0.91666,-1.79167 -2.66666,-3.83334 l -11.66667,-13.45832 -0.95833,-1.08334 0.95833,-1.125 5.04167,-5.66666 1.29167,-1.41667 1.20833,1.45834 12.41666,14.49999 q 5.95833,6.95833 5.95833,13.70833 0,6.29166 -5.29166,10.12499 -5.25,3.79167 -14.70833,3.79167 z m -21.83335,-16.16666 v 14.49999 q 0,9.83333 -6.79166,15.45833 -6.79166,5.66666 -18.95833,5.66666 h -3.08333 -1.66666 v -1.66666 -7.33333 -1.66667 h 1.66666 2.83333 q 14.25,0 15.45833,-8.79166 h -4.95833 q -7.83333,0 -11.99999,-4.04167 -4.16667,-4.08333 -4.16667,-11.74999 0,-3.75 1,-6.91667 1.04167,-3.20833 3,-5.62499 2,-2.45834 5.08333,-3.83333 3.125,-1.375 7.04166,-1.375 7.29167,0 11.41667,4.79166 4.12499,4.75 4.12499,12.58333 z m -21.37499,0.20833 q 0,2.75 1.29167,3.95833 1.33333,1.16667 4.54166,1.16667 h 5.16667 v -5.375 q 0,-6.83333 -5.33333,-6.83333 -5.66667,0 -5.66667,7.08333 z m -40.79163,24.87499 q 14.91666,0 14.91666,-13.54166 v -22.24999 -1.66667 h 1.66667 l 7.24999,-0.0417 h 1.66667 v 1.66666 22.29166 q 0,11.33333 -6.625,17.66666 -6.62499,6.375 -18.79166,6.45833 l -2.95833,0.0417 -1.70833,0.0417 v -1.70833 -7.29166 -1.66667 h 1.66667 z m -21.66666,-23.87499 q 0,2.25 1.45833,3.25 1.5,1 5.125,1 3.58333,0 4.91666,-1 1.375,-1 1.375,-3.41667 0,-1.29166 -1.70833,-3.91666 -1.66667,-2.625 -5.08333,-5.83333 -2.33334,2.75 -3.70834,4.70833 -1.33333,1.95833 -1.875,3.16667 -0.49999,1.16666 -0.49999,2.04166 z m 6.54166,14.95833 q -7.54166,0 -12.20833,-3.79167 -4.625,-3.79166 -4.625,-11.12499 0,-3.625 2.08334,-7.375 2.08333,-3.75 7.08333,-9.83333 l -0.375,-0.33333 -1.125,-1.08333 1,-1.20834 4.54166,-5.41666 1.125,-1.29167 1.25,1.125 q 5.04166,4.41667 8.20833,7.625 3.20833,3.20833 5.5,6.29166 2.29166,3.08333 3.25,5.83333 0.95833,2.75 0.95833,5.70833 0,7.29167 -4.58333,11.08333 -4.58333,3.79167 -12.08333,3.79167 z m -41.95831,0 h -15.16666 -1.66667 v -1.66667 -7.49999 -1.66667 h 1.66667 15.20832 q 9.33333,0 9.33333,-3.33333 0,-1.08334 -0.95833,-2.83333 -0.91667,-1.79167 -2.66667,-3.83334 l -11.66666,-13.45832 -0.95833,-1.08334 0.95833,-1.125 5.04167,-5.66666 1.29166,-1.41667 1.20834,1.45834 12.41666,14.49999 q 5.95833,6.95833 5.95833,13.70833 0,6.29166 -5.29167,10.12499 -5.24999,3.79167 -14.70832,3.79167 z m -21.83333,-16.16666 v 14.49999 q 0,9.83333 -6.79166,15.45833 -6.79167,5.66666 -18.95833,5.66666 h -3.08333 -1.66667 v -1.66666 -7.33333 -1.66667 h 1.66667 2.83333 q 14.25,0 15.45833,-8.79166 h -4.95833 q -7.83333,0 -12,-4.04167 -4.16666,-4.08333 -4.16666,-11.74999 0,-3.75 1,-6.91667 1.04166,-3.20833 3,-5.62499 1.99999,-2.45834 5.08333,-3.83333 3.125,-1.375 7.04166,-1.375 7.29166,0 11.41666,4.79166 4.125,4.75 4.125,12.58333 z m -21.37499,0.20833 q 0,2.75 1.29167,3.95833 1.33333,1.16667 4.54166,1.16667 h 5.16666 v -5.375 q 0,-6.83333 -5.33333,-6.83333 -5.66666,0 -5.66666,7.08333 z m -32.16666,-7.74999 h -4.95833 v 6.70833 q 0,4.29166 1.45833,6.08333 1.45834,1.79166 4.58334,1.79166 2.70833,0 3.95833,-1.75 1.29166,-1.79166 1.29166,-6.12499 v -1.75 q 0,-2.625 -1.41666,-3.79167 -1.41667,-1.16666 -4.91667,-1.16666 z m -22.08332,15.41666 v 27.29165 1.66667 h -1.66667 -7.08333 -1.66666 v -1.66667 l 0.0417,-27.29165 q 0,-12.66667 5.45833,-19.29166 5.45833,-6.625 16.16666,-6.625 h 11.45833 q 7.83333,0 12.04166,3.95833 4.20834,3.95833 4.20834,11.45833 v 1.83333 q 0,8.625 -4.04167,13.20833 -4,4.58333 -11.74999,4.58333 -8.08333,0 -12.33333,-4.54166 -4.25,-4.58333 -4.25,-13.20833 v -6.04167 q -3.41667,0.66667 -5,4.33334 -1.58333,3.62499 -1.58333,10.33333 z"
           id="path1" />
        <path
           style="font-weight:bold;font-size:192px;font-family:Shabnam;-inkscape-font-specification:'Shabnam Bold';text-align:center;text-anchor:middle;fill:#ffffff"
           d="m 687.10352,396.70683 h 34.6875 q 5.53125,0 9.46875,-0.46875 3.9375,-0.5625 6.1875,-1.3125 2.25,-0.84375 3.5625,-2.15625 1.3125,-1.3125 1.6875,-2.4375 0.375,-1.21875 0.5625,-2.90625 -6.09375,0.46875 -10.5,0.46875 -18.09375,0 -27.65625,-6.9375 -9.46875,-7.03125 -9.46875,-22.3125 0,-16.125 9.46875,-26.53125 9.5625,-10.40625 26.15625,-10.40625 16.59375,0 25.6875,9.375 9.1875,9.28125 9.1875,24.9375 v 29.90625 q 0,35.15625 -44.53125,35.15625 h -34.5 q -1.125,0 -1.6875,-3.9375 -0.65625,-4.03125 -0.65625,-7.875 v -1.03125 q 0,-3.65625 0.65625,-7.59375 0.65625,-3.9375 1.6875,-3.9375 z m 44.34375,-51.46875 q -6.65625,0 -9.75,3 -3.09375,3 -3.09375,9.375 0,4.59375 2.71875,6 2.71875,1.40625 12.1875,1.40625 4.59375,0 9.84375,-0.5625 v -8.71875 q 0,-5.15625 -2.8125,-7.78125 -2.8125,-2.71875 -9.09375,-2.71875 z m -16.3125,-50.8125 16.125,-16.125 16.125,16.125 -16.125,16.125 z m -27,126.65625 h -4.3125 q -16.78125,0 -25.59375,-10.03125 -8.71875,-10.125 -8.71875,-28.875 v -82.3125 -3.75 h 3.75 15.5625 3.75 v 3.75 82.40625 q 0,7.875 2.71875,11.15625 2.8125,3.28125 8.8125,3.28125 h 4.03125 q 1.03125,0 1.6875,3.9375 0.65625,3.9375 0.65625,7.59375 v 1.03125 q 0,3.84375 -0.65625,7.875 -0.5625,3.9375 -1.6875,3.9375 z m -111.9375,20.0625 q 33.5625,0 33.5625,-30.46875 v -50.0625 -3.75 h 3.75 l 16.3125,-0.0937 h 3.75 v 3.75 50.15625 q 0,25.5 -14.90625,39.75 -14.90625,14.34375 -42.28125,14.53125 l -6.65625,0.0937 -3.84375,0.0937 v -3.84375 -16.40625 -3.75 h 3.75 z m -21.5625,-145.125 h 15.5625 3.75 v 3.75 117.46875 3.75 h -3.75 -15.5625 -3.75 v -3.75 -117.46875 -3.75 z m -78,100.6875 h 19.03125 q 8.8125,0 12,-2.8125 3.1875,-2.8125 3.1875,-11.53125 v -27.5625 -3.75 h 3.75 16.3125 3.75 v 3.75 27.65625 q 0,18.75 -10.03125,28.6875 -10.03125,9.9375 -29.0625,9.9375 h -18.9375 q -1.125,0 -1.6875,-3.9375 -0.65625,-4.03125 -0.65625,-7.875 v -1.03125 q 0,-3.65625 0.65625,-7.59375 0.65625,-3.9375 1.6875,-3.9375 z m 4.96875,55.40625 16.125,-16.125 16.125,16.125 -16.125,16.125 z m -14.71875,-31.03125 h -1.3125 v 3.65625 q 0,18.75 -14.4375,28.6875 -14.34375,9.9375 -40.78125,9.9375 h -9 q -28.875,0 -43.875,-14.0625 -14.90625,-14.0625 -14.90625,-41.25 v -31.96875 -3.75 h 3.75 l 16.40625,0.0937 h 3.75 v 3.75 31.78125 q 0,15.9375 8.34375,23.4375 8.4375,7.59375 26.53125,7.59375 h 9 q 7.125,0 12.5625,-0.75 5.4375,-0.65625 9.84375,-2.34375 4.40625,-1.59375 6.75,-4.59375 2.34375,-3 2.34375,-7.21875 v -3 h -19.96875 q -4.3125,0 -6.65625,-2.53125 -2.34375,-2.53125 -3.9375,-8.53125 -2.15625,-7.6875 -1.40625,-10.5 0.75,-2.8125 5.53125,-2.8125 h 51.46875 q 1.03125,0 1.6875,3.9375 0.65625,3.9375 0.65625,7.59375 v 1.03125 q 0,3.84375 -0.65625,7.875 -0.5625,3.9375 -1.6875,3.9375 z m 11.625,-24.375 q 0.5625,0 0.9375,3.9375 0.375,3.9375 0.375,7.59375 v 1.03125 q 0,3.84375 -0.375,7.875 -0.375,3.9375 -0.9375,3.9375 h -13.96875 q -0.65625,0 -1.03125,-3.9375 -0.28125,-4.03125 -0.28125,-7.875 v -1.03125 q 0,-3.65625 0.28125,-7.59375 0.375,-3.9375 1.03125,-3.9375 z"
           id="path2" />
      </g>
    </g>
  </g>
</svg>
