<?xml version="1.0" encoding="UTF-8" standalone="no"?>
<svg
   width="450"
   height="450"
   viewBox="0 0 449.99999 450.00001"
   class="d-lg-block d-none"
   version="1.1"
   id="svg2"
   sodipodi:docname="logo_color.svg"
   xml:space="preserve"
   inkscape:version="1.3.1 (9b9bdc1480, 2023-11-25, custom)"
   xmlns:inkscape="http://www.inkscape.org/namespaces/inkscape"
   xmlns:sodipodi="http://sodipodi.sourceforge.net/DTD/sodipodi-0.dtd"
   xmlns="http://www.w3.org/2000/svg"
   xmlns:svg="http://www.w3.org/2000/svg"><defs
     id="defs2" /><sodipodi:namedview
     id="namedview2"
     pagecolor="#ffffff"
     bordercolor="#000000"
     borderopacity="0.25"
     inkscape:showpageshadow="2"
     inkscape:pageopacity="0.0"
     inkscape:pagecheckerboard="0"
     inkscape:deskcolor="#d1d1d1"
     inkscape:zoom="1.4646594"
     inkscape:cx="199.36375"
     inkscape:cy="213.70156"
     inkscape:window-width="1920"
     inkscape:window-height="1011"
     inkscape:window-x="0"
     inkscape:window-y="32"
     inkscape:window-maximized="1"
     inkscape:current-layer="g2"
     showguides="false" /><g
     stroke="rgba(0,0,0,0)"
     id="g2"><circle
       style="fill:#4b7eff;stroke-width:3.54974;fill-opacity:1"
       id="path1"
       cx="225"
       cy="225"
       r="225" /><path
       style="fill:#ffffff;fill-opacity:1;stroke-width:0.293487"
       d="m 278.11392,361.14561 -1.34399,-0.22739 -1.29734,-0.66089 -1.29736,-0.66089 -3.52187,-2.21983 -3.52179,-2.21988 -1.53193,-1.11553 -1.53194,-1.11549 -2.02096,-1.69267 -2.02094,-1.69268 -2.43255,-2.19333 -2.43246,-2.19337 -0.32463,-0.30251 -0.32462,-0.30249 -4.25329,-3.65949 -4.25334,-3.65948 -0.70132,-0.58693 -0.70131,-0.587 -0.33381,-0.29377 -0.33305,-0.29324 -1.32301,-1.17397 -1.32292,-1.17391 -1.87494,-1.61418 -1.87501,-1.61424 -0.31851,-0.29591 -0.3185,-0.29592 -2.6414,-2.31812 -2.64141,-2.31811 -2.02922,-1.78806 -2.02921,-1.78797 -0.3208,-0.29378 -0.32079,-0.29323 -3.44532,-3.19027 -3.44546,-3.19033 -0.95482,-1.93988 -0.95481,-1.93993 0.0307,-2.64719 0.0307,-2.64725 0.73576,-1.96517 0.73577,-1.96523 1.28946,-2.25463 1.28947,-2.25464 2.34794,-2.78575 2.34787,-2.78575 1.11537,-1.35877 1.11536,-1.35882 0.35219,-0.44605 0.35218,-0.44606 1.18733,-1.60846 1.18726,-1.60842 1.20203,-1.92311 1.20189,-1.92318 1.3135,-2.62592 1.31351,-2.62593 2.22245,-5.57622 2.22238,-5.57625 0.5926,-2.22367 0.5926,-2.2237 0.33687,-2.76562 0.33687,-2.76562 -0.17915,-2.49465 -0.17917,-2.4946 -0.44252,-14.67436 -0.44253,-14.67438 -0.4387,-13.94067 -0.43871,-13.94068 -0.27027,-6.01649 -0.27027,-6.01644 -0.37132,-13.16912 -0.37133,-13.1691 0.53134,-0.38894 0.53134,-0.38894 0.91945,-0.83027 0.9196,-0.83026 5.37951,-4.49072 5.37951,-4.49073 0.7549,-0.638 0.75491,-0.63806 0.73194,-0.66028 0.73194,-0.66034 h 0.23735 0.23733 l 0.19295,1.0267 0.19293,1.02665 0.0459,50.26026 0.0382,50.26028 -0.37209,6.16321 -0.3721,6.16322 -0.30931,1.76095 -0.30931,1.76089 -1.31297,2.78815 -1.31289,2.78815 -0.67912,1.02719 -0.67911,1.02719 -3.32021,4.98932 -3.3202,4.98925 -1.03774,1.46745 -1.03773,1.46746 -0.99738,1.4674 -0.99738,1.46747 -1.12408,2.232 -1.1241,2.23195 -0.82519,2.46382 -0.82519,2.4638 5.4e-4,3.08164 6.1e-4,3.08163 0.8797,1.59668 0.87977,1.59669 2.6781,2.95233 2.67815,2.9524 2.16442,2.21899 2.16442,2.21901 2.6336,2.33003 2.6336,2.33009 2.20891,2.07844 2.20899,2.07849 1.90763,1.7109 1.90771,1.7109 2.4967,2.37383 2.49678,2.37388 1.17185,0.99244 1.17179,0.99242 1.4674,1.3573 1.46747,1.35725 1.17401,0.99313 1.17386,0.99315 1.76454,1.65345 1.76438,1.65345 2.42443,1.84555 2.42435,1.84549 1.8277,0.91976 1.82763,0.91974 1.93833,0.12021 1.93833,0.11967 1.05443,-0.69106 1.05449,-0.69105 0.6393,-1.27923 0.63853,-1.27929 -0.13705,-2.09584 -0.13704,-2.09584 -0.97556,-1.61418 -0.97564,-1.61417 -0.46474,-0.55019 -0.46473,-0.55026 -7.04367,-6.77108 -7.04369,-6.77109 -2.79613,-2.65727 -2.79615,-2.65724 -2.34894,-2.20112 -2.34884,-2.20115 -4.83248,-4.25561 -4.83255,-4.25555 -1.24482,-1.28435 -1.24484,-1.28435 -0.81064,-1.65051 -0.81057,-1.65052 8.2e-4,-3.22841 8.2e-4,-3.22835 1.08504,-2.20117 1.08505,-2.2011 2.09942,-2.64143 2.09935,-2.64138 0.68523,-0.88047 0.68524,-0.88047 1.32138,-1.7609 1.32148,-1.76095 2.73236,-3.52746 2.73235,-3.52745 0.58724,-0.69656 0.58723,-0.69657 1.17401,-1.36388 1.17393,-1.36383 1.35501,-1.60259 1.35492,-1.60258 2.02011,-2.37552 2.02011,-2.37546 3.81533,-4.49692 3.81535,-4.49693 0.29399,-0.31988 0.294,-0.31988 1.46089,-1.75894 1.46098,-1.75893 0.16307,-0.14692 0.16308,-0.14685 1.126,-1.39408 1.12594,-1.39402 h 0.35447 0.35449 l 1.55613,1.68751 1.55607,1.68758 3.14541,3.37511 3.14535,3.37508 0.8673,1.02725 0.86737,1.0272 2.05793,2.64137 2.05792,2.64137 2.38087,3.37512 2.38086,3.37508 1.61456,3.08164 1.61463,3.08163 1.30746,3.52186 1.30737,3.52184 0.75108,2.78815 0.75108,2.78809 0.52675,2.64142 0.52751,2.64138 -0.0152,7.1904 -0.0153,7.19048 -0.65232,3.66856 -0.65231,3.66862 -0.71816,2.72825 -0.71816,2.72825 -1.17523,2.99476 -1.17532,2.99476 -2.61161,4.87033 -2.61171,4.87033 -1.9871,3.20055 -1.98703,3.20057 -0.53977,0.60592 -0.539,0.60591 v 0.34813 0.34812 h -0.24653 -0.24653 l -0.36061,0.79131 -0.36061,0.79132 -3.70815,5.15181 -3.70824,5.15185 -2.07063,2.64137 -2.07055,2.64137 -0.73118,0.86215 -0.73117,0.86207 -1.77495,2.07279 -1.77494,2.07276 -1.60016,1.08187 -1.60016,1.08187 -1.23059,0.31222 -1.23052,0.31223 -1.99782,-0.0329 -1.99783,-0.033 z m 28.71723,-45.35479 1.08719,-0.45425 0.69978,-0.64634 0.69978,-0.64634 0.54436,-1.25449 0.54436,-1.25442 0.35984,-2.48861 0.35985,-2.48863 -0.34683,-5.94202 -0.34682,-5.94202 -0.44867,-3.22836 -0.44865,-3.22836 -0.72352,-3.22835 -0.72352,-3.22835 -0.71968,-2.59219 -0.71969,-2.5922 -1.02066,-2.14938 -1.02073,-2.14936 -1.47114,-2.18006 -1.47108,-2.18005 -1.54939,-1.3931 -1.5494,-1.39303 -1.18933,-0.63364 -1.18924,-0.63363 -2.35001,6e-4 -2.35001,6.1e-4 -1.32499,0.77651 -1.32514,0.77656 -2.0479,2.1138 -2.04798,2.11379 -0.29706,0.33458 -0.29706,0.33458 -2.66054,3.08157 -2.66063,3.08165 -1.62052,2.05641 -1.62061,2.05644 -0.53517,1.02519 -0.53517,1.02518 8.2e-4,1.76095 8.2e-4,1.7609 0.81914,1.76095 0.81914,1.76089 5.33725,5.2828 5.3371,5.28275 6.61424,6.47108 6.61416,6.47106 1.71914,1.14111 1.71913,1.14116 1.04156,0.37263 1.04155,0.37263 0.0827,0.0107 0.0827,0.0107 z m -161.98337,43.1891 -1.36696,-0.36827 -1.57086,-0.95201 -1.57086,-0.95207 -2.02831,-1.90272 -2.02831,-1.90272 -1.91501,-1.67315 -1.91499,-1.67321 -1.63001,-1.45233 -1.63,-1.45233 -0.32318,-0.30847 -0.32316,-0.30847 -2.46502,-2.22673 -2.46501,-2.22668 -3.39176,-3.05607 -3.39175,-3.05607 -4.08337,-3.66861 -4.08337,-3.66858 -0.46435,-0.44006 -0.46435,-0.44009 -2.62607,-2.33967 -2.62606,-2.33966 -1.32069,-1.20938 -1.320698,-1.20944 -1.76092,-1.56913 -1.760929,-1.56914 -2.227198,-2.27193 -2.227206,-2.27188 -1.226872,-2.44172 -1.22688,-2.44167 -0.3113,-1.73392 -0.3113,-1.73386 0.200057,-1.72396 0.200049,-1.72401 1.264207,-2.59741 1.2642,-2.59742 2.41969,-4.07005 2.419691,-4.07003 5.985469,-8.95137 5.98547,-8.95136 1.23315,-1.7034 1.23314,-1.70345 1.32069,-0.88558 1.32069,-0.88565 0.8724,0.17357 0.87239,0.17356 0.986,0.94815 0.98598,0.9481 0.30343,0.55783 0.30341,0.55776 -0.0153,1.08459 -0.0153,1.08459 -0.87763,1.48846 -0.87763,1.48846 -2.62638,3.91282 -2.62638,3.91287 -1.17487,2.3479 -1.17489,2.34793 -0.84302,2.49459 -0.84302,2.49466 v 3.54257 3.54257 l 1.23286,2.48944 1.23286,2.48942 1.8061,2.5391 1.8061,2.5391 2.68548,2.58142 2.68547,2.58143 0.97556,0.73378 0.97556,0.73369 3.71882,3.03698 3.71879,3.03702 3.81534,3.13164 3.81534,3.13163 1.42254,1.16852 1.42253,1.16858 0.80945,0.58701 0.80946,0.58692 1.32169,1.17396 1.32167,1.17398 5.76099,4.65751 5.761,4.65752 0.98622,0.52881 0.98621,0.52874 1.23825,0.33351 1.23822,0.33351 1.32734,-0.64259 1.32734,-0.64251 0.87842,-1.2084 0.87842,-1.20835 0.41589,-0.98971 0.41589,-0.98966 v -1.30534 -1.30535 l -0.88558,-1.28712 -0.88558,-1.28718 -0.53991,-0.37975 -0.53993,-0.37974 -1.86251,-1.61418 -1.86254,-1.61418 -0.45493,-0.44008 -0.45485,-0.44008 -5.70568,-4.84253 -5.70565,-4.84253 -2.97977,-2.49466 -2.97977,-2.49465 -2.46612,-2.23903 -2.46612,-2.23902 -1.0272,-0.84077 -1.02721,-0.8407 -0.32156,-0.29539 -0.32164,-0.29537 -2.3198,-2.04939 -2.3198,-2.04943 -2.64138,-2.65971 -2.64139,-2.65971 -0.81777,-1.65128 -0.81777,-1.65127 -0.34339,-1.63714 -0.34338,-1.63713 0.34676,-1.65313 0.34675,-1.65313 0.59304,-1.22505 0.59306,-1.22506 0.51749,-0.57023 0.51748,-0.57032 1.02035,-1.32069 1.02035,-1.32068 0.29775,-0.33672 0.29775,-0.33673 2.3479,-3.01423 2.3479,-3.01429 3.03047,-3.69266 3.0305,-3.69272 0.3446,-0.44115 0.34461,-0.44123 1.02299,-1.3197 1.02298,-1.31972 0.29775,-0.32745 0.29767,-0.32746 2.11179,-2.60716 2.11179,-2.60709 3.12633,-3.81534 3.12634,-3.81534 2.97472,-3.66857 2.97472,-3.66861 1.90661,-1.8814 1.90662,-1.88145 1.53393,-0.70223 1.53395,-0.70223 1.05614,0.19799 1.05616,0.19799 1.67134,1.24774 1.67133,1.24779 1.06084,1.13779 1.06084,1.13778 0.77346,1.16875 0.77346,1.16869 v 1.25579 1.25573 l -0.59581,1.24414 -0.59581,1.24409 -2.88495,3.58806 -2.88495,3.58805 -1.87539,2.09954 -1.87538,2.09954 -0.73371,0.90126 -0.73369,0.90125 -2.20116,2.50929 -2.20115,2.50923 -0.77084,0.88049 -0.77081,0.88046 -4.21121,4.84254 -4.21118,4.84254 -4.23729,4.6958 -4.23729,4.69582 -0.86303,1.17391 -0.86304,1.17397 -0.85007,1.73957 -0.85006,1.73957 v 1.27842 1.27846 l 0.70178,1.38429 0.70177,1.38434 3.48045,3.36647 3.48044,3.36648 6.02501,5.29139 6.02503,5.2914 1.56302,1.32068 1.56304,1.32069 0.77635,0.66916 0.77633,0.66915 3.96112,3.29288 3.96112,3.29293 1.92773,1.90767 1.92773,1.90767 0.99516,2.02196 0.99516,2.02192 v 1.95357 1.95364 l -0.40716,1.0137 -0.40717,1.01377 -1.34079,1.86419 -1.34081,1.86421 -2.9583,4.0095 -2.95831,4.0095 -2.17772,1.98187 -2.17773,1.98192 -1.46745,0.72206 -1.46743,0.72206 -2.14697,0.44721 -2.14697,0.44719 -2.10859,-0.0214 -2.1086,-0.0215 z m 31.44643,-31.36223 -0.97025,-0.66035 -0.58157,-0.78522 -0.58157,-0.78522 -0.12984,-1.41595 -0.12986,-1.41593 1.68211,-2.49461 1.6821,-2.49465 0.1781,-0.14692 0.17808,-0.14685 1.61236,-1.90097 1.61235,-1.90103 0.58699,-0.71832 0.58701,-0.71838 1.3207,-1.50218 1.3207,-1.50216 2.5335,-3.06896 2.5335,-3.06891 3.4527,-4.10883 3.45268,-4.10883 0.18299,-0.14685 0.18298,-0.14692 2.77632,-3.37509 2.7763,-3.37511 0.15772,-0.14686 0.15772,-0.14692 2.03067,-2.49466 2.03067,-2.49464 1.80481,-2.0544 1.80481,-2.05438 1.53677,-2.05445 1.53675,-2.05437 0.3675,-0.45701 0.3675,-0.457 1.33962,-1.91654 1.33961,-1.91659 1.92096,-3.78961 1.92103,-3.78966 0.8124,-2.64137 0.81233,-2.64138 0.0153,-8.19541 0.008,-8.19536 5.13604,-4.05355 5.13597,-4.05362 0.17379,-0.004 0.1738,-0.004 0.19447,9.17147 0.19447,9.17152 -0.27716,2.38096 -0.27715,2.38096 -0.60791,2.4433 -0.60791,2.4433 -1.45759,3.05138 -1.45768,3.05144 -1.09791,1.80943 -1.09782,1.80937 -2.06919,2.93492 -2.06925,2.93486 -1.46151,2.01821 -1.46141,2.01827 -2.78819,3.60404 -2.7881,3.60405 -2.20109,2.86621 -2.20118,2.86622 -0.29706,0.31605 -0.29706,0.31605 -3.98164,5.13602 -3.98171,5.13603 -3.66344,4.84253 -3.66335,4.84254 -3.38901,4.40231 -3.38899,4.40232 -2.1693,2.32536 -2.16929,2.32536 -1.30477,0.82962 -1.30478,0.82966 h -1.36658 -1.36659 z m -15.82106,-19.17592 -1.5899,-0.4276 -1.55304,-0.88853 -1.55303,-0.88859 -1.22699,-1.37943 -1.22698,-1.37939 -0.82834,-1.76094 -0.82836,-1.76091 -0.34185,-2.09284 -0.34184,-2.0928 0.50722,-2.30953 0.50722,-2.30948 0.74403,-1.38204 0.74404,-1.382 1.47653,-1.46881 1.47653,-1.46882 2.18697,-1.08056 2.18696,-1.08062 2.67977,-0.13597 2.67977,-0.13598 1.88333,0.63876 1.88333,0.63884 1.34503,0.8943 1.34503,0.89423 1.24624,1.36062 1.24622,1.36066 0.9235,2.20118 0.9235,2.20115 0.14187,1.94837 0.14187,1.94841 -0.36887,1.57343 -0.36888,1.57349 -0.85914,1.76089 -0.85914,1.76096 -1.37708,1.41822 -1.37706,1.41828 -1.46745,0.75368 -1.46743,0.75368 -1.46744,0.39277 -1.46743,0.39277 -2.05441,-0.0161 -2.05442,-0.0161 z m 171.56568,-24.28971 -0.19141,-4.21163 -0.441,-2.52659 -0.44023,-2.52654 -0.45631,-1.40603 -0.45632,-1.4061 -2.48552,-5.02875 -2.48553,-5.02875 1.98764,-1.88993 1.98764,-1.88993 2.20118,-2.01751 2.20109,-2.01745 7.20608,-6.80553 7.20605,-6.80558 2.20079,-2.45451 2.20072,-2.4545 0.90076,-1.17391 0.90075,-1.17397 0.9183,-1.82596 0.91837,-1.8259 -0.002,-1.10896 -0.002,-1.10896 -0.72888,-1.56539 -0.72887,-1.56543 -2.03152,-2.69017 -2.0315,-2.69011 -9.93016,-9.87042 -9.93024,-9.87034 -7.77738,-7.6847 -7.77746,-7.68469 -22.2525,-22.21247 -22.25191,-22.21246 -16.52401,-16.72882 -16.52397,-16.72877 -0.82227,-0.98311 -0.8222,-0.98311 -2.30377,-1.86004 -2.30378,-1.86003 -1.68092,-0.825453 -1.68101,-0.825444 -2.20117,0.0098 -2.2011,0.0098 -1.3207,0.691429 -1.32071,0.691438 -1.76086,1.26933 -1.76102,1.26933 -23.33221,23.20752 -23.33225,23.2075 -23.57041,23.39425 -23.57039,23.39426 -12.57262,12.47322 -12.572626,12.4732 -1.02935,1.80366 -1.029342,1.80366 -0.337487,1.62581 -0.337494,1.62582 0.206423,1.11957 0.206407,1.11957 0.718928,1.52746 0.718912,1.52741 2.134347,2.14117 2.134332,2.14115 2.9122,2.64142 2.9122,2.64137 1.30878,1.54646 1.30879,1.54639 0.82671,1.44641 0.8267,1.4464 0.16629,1.61135 0.1663,1.61129 -0.50111,1.26564 -0.50109,1.26557 -1.36095,1.7609 -1.36094,1.76095 -0.15909,0.14685 -0.15911,0.14692 -2.09422,2.49466 -2.09421,2.49459 -0.5462,0.59099 -0.54619,0.59099 -2.15889,2.41724 -2.158875,2.41724 h -0.242856 -0.242855 l -1.560618,-1.49936 -1.560372,-1.49945 -4.696841,-4.59043 -4.696841,-4.59045 -9.65685,-9.39158 -9.656851,-9.39162 -1.892911,-1.90767 -1.892902,-1.90767 -0.606225,-1.17392 -0.606217,-1.17396 -0.112096,-2.34794 -0.112088,-2.34788 0.902405,-1.54079 0.902406,-1.54085 h 0.287574 0.287567 v -0.32692 -0.32746 l 3.005135,-3.41478 3.005136,-3.41473 22.802497,-22.74526 22.802528,-22.74532 37.51227,-37.38476 37.51226,-37.384789 17.94758,-17.894748 17.94763,-17.894753 0.44636,0.250682 0.44636,0.250626 55.81929,55.615872 55.81923,55.61584 16.91435,16.80912 16.91429,16.8091 1.90771,1.86916 1.90762,1.86921 4.73037,4.8007 4.73028,4.80069 1.2172,1.88651 1.21711,1.88651 0.58263,1.88641 0.58263,1.88634 v 1.87084 1.87079 l -0.48845,1.25328 -0.48854,1.25328 -1.6291,1.90767 -1.62918,1.90762 -4.11895,4.20495 -4.11886,4.2049 -11.59278,11.55178 -11.5928,11.55171 -3.08156,2.97769 -3.08165,2.97766 -4.868,4.74468 -4.86808,4.74466 -2.35536,2.27449 -2.35545,2.27455 h -0.28864 -0.28863 z m -141.06186,-4.5196 0.005,-0.22035 1.03084,-3.22835 1.03085,-3.22835 0.55975,-2.78814 0.55975,-2.7881 0.30931,-3.37513 0.30931,-3.37513 0.28865,-7.99222 0.28863,-7.99222 -0.147,-2.72005 -0.147,-2.72008 -0.73117,-16.87554 -0.73117,-16.87553 -0.58464,-12.47321 -0.5847,-12.47321 -0.45103,-9.39159 -0.45103,-9.39162 -0.23789,-3.88993 -0.23787,-3.88991 0.0313,-1.22227 0.0314,-1.22228 2.49465,-2.20264 2.49464,-2.20263 4.79726,-4.2779 4.79725,-4.27791 h 0.33917 0.33917 l 0.0689,3.66856 0.0689,3.66863 0.59108,45.78401 0.59105,45.78407 -8.2e-4,8.08954 -8.2e-4,8.08956 -0.42568,3.2097 -0.42569,3.20974 -0.76769,2.63974 -0.76761,2.63974 -0.91095,1.61581 -0.91101,1.61581 -0.88453,1.17397 -0.88452,1.17396 -2.36717,2.36856 -2.36717,2.36861 -2.64138,2.10003 -2.64139,2.10003 -0.36689,0.005 -0.36688,0.005 z m 96.55192,-54.78847 -1.32062,-0.36773 -1.24675,-0.63907 -1.24667,-0.63907 -1.61562,-1.64165 -1.61563,-1.6417 -0.90772,-1.90202 -0.9078,-1.902 -0.30166,-2.03487 -0.30166,-2.03485 0.35525,-1.82634 0.35526,-1.82639 0.84386,-1.77858 0.8438,-1.77852 1.76156,-1.68017 1.76146,-1.68023 1.99209,-0.94357 1.99208,-0.94358 h 3.37511 3.3751 l 1.9489,0.95347 1.9489,0.95355 1.42621,1.2888 1.4262,1.28881 0.99402,1.65361 0.99408,1.65368 0.39506,1.68027 0.39583,1.68034 0.004,1.71857 0.004,1.71857 -0.45631,1.76138 -0.45632,1.76139 -0.75185,1.21585 -0.75184,1.21582 -1.06637,1.12765 -1.06644,1.12768 -1.19827,0.83374 -1.19828,0.83376 -1.80068,0.6066 -1.80067,0.6066 -2.43056,-0.0276 -2.43055,-0.0276 z"
       id="path2" /></g></svg>
