<?xml version="1.0" encoding="UTF-8" standalone="no"?>
<!-- Created with Inkscape (http://www.inkscape.org/) -->

<svg
   width="507.73499mm"
   height="117.74mm"
   viewBox="0 0 507.73499 117.74"
   version="1.1"
   id="svg1"
   xml:space="preserve"
   inkscape:version="1.3.1 (9b9bdc1480, 2023-11-25, custom)"
   sodipodi:docname="farabiLogo.svg"
   xmlns:inkscape="http://www.inkscape.org/namespaces/inkscape"
   xmlns:sodipodi="http://sodipodi.sourceforge.net/DTD/sodipodi-0.dtd"
   xmlns="http://www.w3.org/2000/svg"
   xmlns:svg="http://www.w3.org/2000/svg"><sodipodi:namedview
     id="namedview1"
     pagecolor="#ffffff"
     bordercolor="#000000"
     borderopacity="0.25"
     inkscape:showpageshadow="2"
     inkscape:pageopacity="0.0"
     inkscape:pagecheckerboard="0"
     inkscape:deskcolor="#d1d1d1"
     inkscape:document-units="mm"
     inkscape:zoom="0.3599046"
     inkscape:cx="825.21868"
     inkscape:cy="297.30101"
     inkscape:window-width="1920"
     inkscape:window-height="1011"
     inkscape:window-x="0"
     inkscape:window-y="32"
     inkscape:window-maximized="1"
     inkscape:current-layer="layer1" /><defs
     id="defs1" /><g
     inkscape:label="Layer 1"
     inkscape:groupmode="layer"
     id="layer1"><path
       style="fill:#4b7eff;fill-opacity:1;stroke-width:0.0776518"
       d="m 463.69657,98.595537 -0.3556,-0.0602 -0.34325,-0.17486 -0.34326,-0.17486 -0.93183,-0.587328 -0.9318,-0.58735 -0.40533,-0.29515 -0.40532,-0.29514 -0.53472,-0.44785 -0.5347,-0.44786 -0.64362,-0.58031 -0.64358,-0.58033 -0.0859,-0.08 -0.0859,-0.08 -1.12535,-0.96824 -1.12537,-0.96823 -0.18555,-0.1553 -0.18556,-0.15531 -0.0883,-0.0777 -0.0881,-0.0776 -0.35005,-0.31061 -0.35002,-0.3106 -0.49608,-0.42708 -0.49609,-0.4271 -0.0843,-0.0783 -0.0843,-0.0783 -0.69888,-0.61334 -0.69887,-0.613328 -0.5369,-0.47309 -0.53689,-0.47307 -0.0849,-0.0777 -0.0849,-0.0776 -0.91157,-0.8441 -0.91161,-0.8441 -0.25263,-0.51326 -0.25263,-0.51328 0.008,-0.7004 0.008,-0.70042 0.19467,-0.51995 0.19467,-0.51997 0.34117,-0.59653 0.34117,-0.59654 0.62123,-0.73707 0.62121,-0.73706 0.2951,-0.35951 0.29511,-0.35952 0.0932,-0.11802 0.0932,-0.11802 0.31415,-0.42557 0.31413,-0.42556 0.31804,-0.50882 0.318,-0.50884 0.34753,-0.69478 0.34753,-0.69477 0.58802,-1.47538 0.58801,-1.47538 0.15679,-0.58835 0.15679,-0.58835 0.0891,-0.73174 0.0891,-0.73174 -0.0474,-0.66004 -0.0474,-0.66003 -0.11709,-3.88259 -0.11708,-3.8826 -0.11607,-3.68846 -0.11608,-3.68848 -0.0715,-1.59186 -0.0715,-1.59185 -0.0982,-3.48433 -0.0983,-3.48432 0.14058,-0.10291 0.14059,-0.10291 0.24327,-0.21967 0.24331,-0.21968 1.42333,-1.18816 1.42333,-1.18818 0.19973,-0.1688 0.19974,-0.16882 0.19366,-0.1747 0.19366,-0.17472 h 0.0628 0.0628 l 0.0511,0.27165 0.051,0.27164 0.0121,13.29802 0.0101,13.29804 -0.0985,1.63068 -0.0984,1.63068 -0.0818,0.46592 -0.0818,0.4659 -0.34739,0.7377 -0.34737,0.7377 -0.17968,0.27178 -0.17968,0.27177 -0.87848,1.3201 -0.87847,1.32007 -0.27456,0.38826 -0.27457,0.38827 -0.26389,0.38825 -0.26389,0.38826 -0.29741,0.59055 -0.29742,0.59054 -0.21833,0.65189 -0.21833,0.65188 1.4e-4,0.81535 1.6e-4,0.81535 0.23275,0.42245 0.23278,0.42246 0.70858,0.78113 0.70859,0.78116 0.57267,0.58711 0.57267,0.58711 0.69681,0.61649 0.6968,0.6165 0.58444,0.54992 0.58447,0.54994 0.50472,0.45267 0.50475,0.45268 0.66059,0.62807 0.6606,0.628088 0.31005,0.26259 0.31004,0.26257 0.38825,0.35912 0.38827,0.35911 0.31062,0.26276 0.31059,0.26277 0.46686,0.43748 0.46683,0.43747 0.64146,0.48831 0.64145,0.48828 0.48357,0.24336 0.48356,0.24334 0.51285,0.0318 0.51285,0.0317 0.27899,-0.18284 0.279,-0.18284 0.16915,-0.33846 0.16894,-0.33848 -0.0363,-0.55453 -0.0363,-0.55452 -0.25811,-0.42709 -0.25814,-0.42708 -0.12297,-0.14557 -0.12296,-0.14559 -1.86363,-1.791518 -1.86365,-1.79151 -0.73981,-0.70307 -0.73981,-0.70306 -0.62149,-0.58238 -0.62146,-0.58239 -1.2786,-1.12596 -1.27861,-1.12595 -0.32936,-0.33982 -0.32936,-0.33982 -0.21448,-0.43669 -0.21447,-0.4367 2.2e-4,-0.85419 2.2e-4,-0.85417 0.28708,-0.58239 0.28709,-0.58237 0.55547,-0.69888 0.55545,-0.69887 0.1813,-0.23295 0.1813,-0.23296 0.34962,-0.46591 0.34964,-0.46591 0.72294,-0.93331 0.72293,-0.93331 0.15538,-0.18429 0.15537,-0.1843 0.31062,-0.36086 0.3106,-0.36085 0.35852,-0.42402 0.35849,-0.42402 0.53448,-0.62852 0.53449,-0.62851 1.00947,-1.18981 1.00948,-1.18981 0.0778,-0.0846 0.0778,-0.0846 0.38653,-0.46539 0.38655,-0.46538 0.0431,-0.0389 0.0431,-0.0389 0.29792,-0.36885 0.2979,-0.36883 h 0.0938 0.0938 l 0.41173,0.44649 0.41171,0.4465 0.83222,0.893 0.83221,0.89299 0.22947,0.27179 0.22949,0.27178 0.5445,0.69887 0.54449,0.69886 0.62993,0.893 0.62994,0.89299 0.42719,0.81535 0.4272,0.81535 0.34593,0.93182 0.34591,0.93182 0.19872,0.7377 0.19873,0.73768 0.13937,0.69888 0.13957,0.69886 -0.004,1.90246 -0.004,1.90249 -0.1726,0.97063 -0.17259,0.97066 -0.19001,0.72185 -0.19001,0.72185 -0.31095,0.79236 -0.31097,0.79237 -0.69099,1.2886 -0.69101,1.288608 -0.52576,0.84682 -0.52573,0.84681 -0.14281,0.16032 -0.14262,0.16031 v 0.0921 0.0921 h -0.0652 -0.0652 l -0.0954,0.20937 -0.0954,0.20937 -0.98112,1.36308 -0.98114,1.36309 -0.54785,0.69887 -0.54783,0.69886 -0.19346,0.22811 -0.19346,0.22809 -0.46962,0.54842 -0.46962,0.54842 -0.42337,0.286248 -0.42338,0.28624 -0.32559,0.0826 -0.32558,0.0826 -0.52859,-0.009 -0.52859,-0.009 z m 7.5981,-12.000116 0.28765,-0.12019 0.18515,-0.17101 0.18515,-0.17101 0.14403,-0.33192 0.14403,-0.3319 0.0952,-0.65844 0.0952,-0.65845 -0.0918,-1.57216 -0.0918,-1.57216 -0.11871,-0.85417 -0.1187,-0.85417 -0.19144,-0.85417 -0.19143,-0.85416 -0.19041,-0.68585 -0.19042,-0.68586 -0.27005,-0.56869 -0.27007,-0.56868 -0.38924,-0.57681 -0.38922,-0.5768 -0.40994,-0.3686 -0.40995,-0.36857 -0.31468,-0.16765 -0.31465,-0.16765 -0.62177,1.6e-4 -0.62178,1.6e-4 -0.35057,0.20545 -0.35061,0.20547 -0.54184,0.55928 -0.54186,0.55927 -0.0786,0.0885 -0.0786,0.0885 -0.70394,0.81533 -0.70395,0.81535 -0.42877,0.5441 -0.42878,0.54409 -0.1416,0.27125 -0.1416,0.27125 2.2e-4,0.46592 2.2e-4,0.4659 0.21673,0.46592 0.21673,0.4659 1.41215,1.39774 1.4121,1.39773 1.75002,1.71214 1.75,1.71213 0.45485,0.30192 0.45486,0.30194 0.27558,0.0986 0.27557,0.0986 0.0219,0.003 0.0219,0.003 z m -42.8581,11.427118 -0.36167,-0.0974 -0.41563,-0.25189 -0.41562,-0.2519 -0.53666,-0.50343 -0.53665,-0.50343 -0.50668,-0.44268 -0.50668,-0.44271 -0.43127,-0.38426 -0.43127,-0.38426 -0.0855,-0.0816 -0.0855,-0.0816 -0.65221,-0.58916 -0.6522,-0.58914 -0.8974,-0.80859 -0.8974,-0.80858 -1.08039,-0.97066 -1.08039,-0.97064 -0.12286,-0.11643 -0.12286,-0.11644 -0.69482,-0.619038 -0.69481,-0.61904 -0.34943,-0.31998 -0.34944,-0.32 -0.46591,-0.41516 -0.46591,-0.41517 -0.58928,-0.60112 -0.58928,-0.6011 -0.32461,-0.64603 -0.32461,-0.64603 -0.0824,-0.45877 -0.0824,-0.45875 0.0529,-0.45613 0.0529,-0.45614 0.33449,-0.68723 0.33449,-0.68724 0.64021,-1.07687 0.64021,-1.07686 1.58365,-2.36838 1.58366,-2.36838 0.32627,-0.45069 0.32627,-0.45071 0.34943,-0.23431 0.34943,-0.23432 0.23082,0.0459 0.23082,0.0459 0.26088,0.25086 0.26088,0.25086 0.0803,0.14759 0.0803,0.14757 -0.004,0.28697 -0.004,0.28696 -0.23221,0.39382 -0.2322,0.39382 -0.6949,1.03527 -0.6949,1.03528 -0.31085,0.62122 -0.31085,0.62122 -0.22305,0.66003 -0.22305,0.66004 v 0.93731 0.9373 l 0.32619,0.65867 0.3262,0.65866 0.47786,0.6718 0.47787,0.6718 0.71053,0.683 0.71053,0.68301 0.25812,0.19414 0.25811,0.19413 0.98394,0.80353 0.98393,0.80354 1.00948,0.82858 1.00947,0.82858 0.37638,0.309168 0.37638,0.30919 0.21417,0.15531 0.21417,0.15529 0.34969,0.31061 0.3497,0.31062 1.52426,1.2323 1.52426,1.2323 0.26094,0.13991 0.26093,0.1399 0.32762,0.0882 0.32762,0.0882 0.35119,-0.17002 0.35119,-0.16999 0.23242,-0.31973 0.23241,-0.31971 0.11004,-0.26186 0.11004,-0.26184 v -0.34538 -0.34537 l -0.23431,-0.34055 -0.23431,-0.34057 -0.14285,-0.10047 -0.14286,-0.10048 -0.49279,-0.42708 -0.4928,-0.42709 -0.12036,-0.11643 -0.12035,-0.11644 -1.50963,-1.281248 -1.50962,-1.28126 -0.78839,-0.66004 -0.7884,-0.66004 -0.6525,-0.59241 -0.65249,-0.59241 -0.27178,-0.22246 -0.27178,-0.22243 -0.0851,-0.0782 -0.0851,-0.0781 -0.61378,-0.54223 -0.61378,-0.54225 -0.69887,-0.70371 -0.69887,-0.70372 -0.21637,-0.4369 -0.21636,-0.4369 -0.0909,-0.43316 -0.0909,-0.43315 0.0918,-0.43739 0.0917,-0.43739 0.15691,-0.32413 0.15691,-0.32413 0.13692,-0.15088 0.13692,-0.15089 0.26997,-0.34944 0.26996,-0.34943 0.0788,-0.0891 0.0788,-0.0891 0.62122,-0.79751 0.62121,-0.79753 0.80181,-0.97702 0.80182,-0.97703 0.0912,-0.11672 0.0912,-0.11675 0.27066,-0.34917 0.27067,-0.34917 0.0788,-0.0866 0.0788,-0.0866 0.55874,-0.68981 0.55874,-0.68979 0.82718,-1.00948 0.82718,-1.00948 0.78706,-0.97064 0.78706,-0.97065 0.50446,-0.49779 0.50446,-0.4978 0.40585,-0.1858 0.40586,-0.18579 0.27943,0.0524 0.27945,0.0524 0.4422,0.33014 0.44221,0.33014 0.28068,0.30104 0.28068,0.30104 0.20465,0.30923 0.20464,0.30922 v 0.33226 0.33224 l -0.15764,0.32918 -0.15764,0.32917 -0.76331,0.94934 -0.76331,0.94934 -0.4962,0.5555 -0.49619,0.5555 -0.19413,0.23846 -0.19412,0.23846 -0.58239,0.66391 -0.58239,0.6639 -0.20395,0.23297 -0.20394,0.23295 -1.11422,1.28126 -1.11421,1.28125 -1.12112,1.24243 -1.12111,1.24244 -0.22834,0.31059 -0.22835,0.31062 -0.22492,0.46026 -0.22491,0.46026 v 0.33825 0.33826 l 0.18568,0.36626 0.18568,0.36627 0.92087,0.89071 0.92086,0.89072 1.59412,1.40001 1.59412,1.40002 0.41355,0.34943 0.41356,0.34943 0.20541,0.17705 0.2054,0.17704 1.04805,0.87125 1.04804,0.871248 0.51005,0.50474 0.51004,0.50474 0.26331,0.53497 0.2633,0.53497 v 0.51688 0.5169 l -0.10773,0.26821 -0.10773,0.26823 -0.35475,0.49323 -0.35476,0.49324 -0.78271,1.06085 -0.78272,1.06084 -0.57619,0.52437 -0.57619,0.52438 -0.38826,0.19105 -0.38826,0.19105 -0.56805,0.11832 -0.56806,0.118318 -0.55789,-0.006 -0.5579,-0.006 z m 8.3202,-8.29793 -0.25671,-0.17472 -0.15387,-0.207748 -0.15388,-0.20776 -0.0344,-0.37463 -0.0344,-0.37464 0.44506,-0.66003 0.44506,-0.66004 0.0471,-0.0389 0.0471,-0.0389 0.4266,-0.50296 0.4266,-0.50298 0.15531,-0.19006 0.15531,-0.19007 0.34944,-0.39745 0.34943,-0.39745 0.67032,-0.81199 0.67032,-0.81199 0.91353,-1.08712 0.91352,-1.08713 0.0484,-0.0389 0.0484,-0.0389 0.73457,-0.89299 0.73456,-0.893 0.0417,-0.0389 0.0417,-0.0389 0.53729,-0.66004 0.53728,-0.66004 0.47752,-0.54356 0.47752,-0.54356 0.40661,-0.54357 0.40659,-0.54355 0.0972,-0.12092 0.0972,-0.12092 0.35444,-0.50708 0.35444,-0.5071 0.50826,-1.00267 0.50827,-1.00268 0.21495,-0.69886 0.21493,-0.69886 0.004,-2.16837 0.002,-2.16836 1.35891,-1.0725 1.35889,-1.07252 0.046,-0.001 0.046,-10e-4 0.0514,2.42662 0.0515,2.42663 -0.0733,0.62996 -0.0733,0.62997 -0.16085,0.64645 -0.16084,0.64646 -0.38565,0.80734 -0.38568,0.80736 -0.29049,0.47875 -0.29047,0.47873 -0.54747,0.77653 -0.54749,0.77651 -0.38669,0.53399 -0.38666,0.534 -0.73771,0.95357 -0.73769,0.95357 -0.58237,0.75835 -0.58239,0.75835 -0.0786,0.0836 -0.0786,0.0836 -1.05347,1.3589 -1.0535,1.35891 -0.96928,1.28125 -0.96927,1.28126 -0.89667,1.16478 -0.89667,1.16478 -0.57396,0.61525 -0.57396,0.61525 -0.34522,0.219498 -0.34522,0.21952 h -0.36158 -0.36157 z m -4.18598,-5.073628 -0.42067,-0.11313 -0.4109,-0.23509 -0.41091,-0.23511 -0.32464,-0.36497 -0.32464,-0.36497 -0.21916,-0.46591 -0.21917,-0.46591 -0.0905,-0.55373 -0.0905,-0.55372 0.1342,-0.61106 0.13421,-0.61105 0.19685,-0.36567 0.19686,-0.36565 0.39067,-0.38862 0.39066,-0.38863 0.57864,-0.2859 0.57863,-0.28591 0.70903,-0.036 0.70902,-0.036 0.4983,0.16901 0.49829,0.16903 0.35588,0.23661 0.35587,0.2366 0.32973,0.36 0.32973,0.36001 0.24435,0.58239 0.24434,0.58239 0.0375,0.51551 0.0375,0.51551 -0.0976,0.41631 -0.0976,0.41632 -0.22731,0.4659 -0.22731,0.46592 -0.36436,0.37524 -0.36434,0.37525 -0.38827,0.19941 -0.38825,0.19941 -0.38826,0.10392 -0.38826,0.10392 -0.54356,-0.004 -0.54357,-0.004 z m 45.39341,-6.42665 -0.0506,-1.11433 -0.11668,-0.66849 -0.11648,-0.66848 -0.12073,-0.37201 -0.12074,-0.37203 -0.65762,-1.33053 -0.65763,-1.33052 0.52589,-0.50004 0.5259,-0.50005 0.5824,-0.5338 0.58237,-0.53378 1.90661,-1.80063 1.9066,-1.80064 0.58229,-0.64943 0.58227,-0.64942 0.23833,-0.31059 0.23832,-0.31062 0.24297,-0.48311 0.24299,-0.48311 -5.3e-4,-0.29341 -5.3e-4,-0.29341 -0.19285,-0.41418 -0.19285,-0.41418 -0.53751,-0.71178 -0.5375,-0.71176 -2.62735,-2.61155 -2.62738,-2.61152 -2.05776,-2.03325 -2.05779,-2.03324 -5.88764,-5.87705 -5.88748,-5.87704 -4.37198,-4.42617 -4.37197,-4.42615 -0.21756,-0.26012 -0.21754,-0.26011 -0.60954,-0.49214 -0.60954,-0.49213 -0.44474,-0.2184 -0.44477,-0.2184 -0.58239,0.003 -0.58238,0.003 -0.34943,0.18295 -0.34944,0.18294 -0.46589,0.33584 -0.46594,0.33585 -6.17331,6.14032 -6.17333,6.14032 -6.23634,6.18972 -6.23633,6.18974 -3.3265,3.3002 -3.32651,3.3002 -0.27235,0.47722 -0.27235,0.47722 -0.0893,0.43016 -0.0893,0.43017 0.0546,0.29622 0.0546,0.29622 0.19022,0.40414 0.19021,0.40412 0.56471,0.56652 0.56471,0.56651 0.77052,0.69888 0.77052,0.69886 0.34628,0.40917 0.34629,0.40915 0.21873,0.38269 0.21873,0.3827 0.044,0.42633 0.044,0.42632 -0.13259,0.33487 -0.13258,0.33485 -0.36008,0.46591 -0.36008,0.46591 -0.0421,0.0389 -0.0421,0.0389 -0.5541,0.66005 -0.55409,0.66002 -0.14452,0.15637 -0.14451,0.15636 -0.57121,0.63957 -0.5712,0.63956 h -0.0642 -0.0643 l -0.41291,-0.39671 -0.41285,-0.39673 -1.24271,-1.21455 -1.2427,-1.21456 -2.55505,-2.48485 -2.55504,-2.48487 -0.50083,-0.50474 -0.50083,-0.50473 -0.1604,-0.3106 -0.16039,-0.31061 -0.0297,-0.62123 -0.0297,-0.62121 0.23876,-0.40767 0.23877,-0.40768 h 0.0761 0.0761 v -0.0865 -0.0866 l 0.79511,-0.90349 0.79511,-0.90348 6.03316,-6.01802 6.03317,-6.01803 9.92512,-9.89138 9.92512,-9.8914 4.74863,-4.73465 4.74864,-4.73465 0.1181,0.0663 0.1181,0.0663 14.76885,14.71503 14.76884,14.71502 4.47525,4.44742 4.47524,4.4474 0.50475,0.49455 0.50473,0.49456 1.25157,1.27019 1.25156,1.27018 0.32205,0.49914 0.32202,0.49914 0.15416,0.49911 0.15415,0.4991 v 0.49499 0.49498 l -0.12923,0.3316 -0.12926,0.33159 -0.43104,0.50474 -0.43105,0.50473 -1.0898,1.11255 -1.08979,1.11255 -3.06725,3.05641 -3.06726,3.05639 -0.81533,0.78785 -0.81536,0.78784 -1.28799,1.25536 -1.28801,1.25536 -0.62319,0.60179 -0.62321,0.60181 h -0.0764 -0.0764 z m -37.32261,-1.19581 10e-4,-0.0583 0.27274,-0.85417 0.27275,-0.85417 0.1481,-0.73769 0.1481,-0.73769 0.0818,-0.893 0.0818,-0.893 0.0764,-2.11461 0.0764,-2.11461 -0.0389,-0.71968 -0.0389,-0.71969 -0.19346,-4.46498 -0.19345,-4.46499 -0.15469,-3.3002 -0.1547,-3.3002 -0.11934,-2.48486 -0.11933,-2.48487 -0.0629,-1.02921 -0.0629,-1.0292 0.008,-0.3234 0.008,-0.32339 0.66004,-0.58278 0.66004,-0.58278 1.26928,-1.13186 1.26927,-1.13187 h 0.0897 0.0897 l 0.0182,0.97064 0.0182,0.97066 0.15639,12.11369 0.15638,12.1137 -2.2e-4,2.14036 -2.1e-4,2.14036 -0.11263,0.84923 -0.11263,0.84925 -0.20312,0.69843 -0.2031,0.69843 -0.24102,0.42751 -0.24104,0.42752 -0.23403,0.31061 -0.23403,0.31061 -0.62631,0.62669 -0.62632,0.62669 -0.69886,0.55563 -0.69887,0.55564 -0.0971,0.001 -0.0971,10e-4 z m 25.54603,-14.49612 -0.34942,-0.0973 -0.32987,-0.16909 -0.32985,-0.16909 -0.42746,-0.43435 -0.42747,-0.43437 -0.24017,-0.50324 -0.24019,-0.50324 -0.0798,-0.53839 -0.0798,-0.53839 0.094,-0.48321 0.094,-0.48324 0.22328,-0.47058 0.22325,-0.47057 0.46608,-0.44454 0.46605,-0.44456 0.52708,-0.24966 0.52707,-0.24965 h 0.893 0.89299 l 0.51565,0.25227 0.51564,0.25229 0.37736,0.341 0.37734,0.341 0.26301,0.43752 0.26301,0.43753 0.10453,0.44457 0.10473,0.44459 0.001,0.45471 10e-4,0.4547 -0.12074,0.46603 -0.12073,0.46604 -0.19893,0.32169 -0.19892,0.32169 -0.28215,0.29836 -0.28216,0.29836 -0.31704,0.22059 -0.31705,0.2206 -0.47643,0.1605 -0.47642,0.1605 -0.64309,-0.007 -0.64308,-0.007 z"
       id="path2" /><path
       style="font-weight:bold;font-size:51.8936px;font-family:Shabnam;-inkscape-font-specification:'Shabnam Bold';text-align:center;letter-spacing:0px;text-anchor:middle;fill:#4b7eff;stroke-width:2.78"
       d="m 96.650619,65.20467 h 9.375311 q 1.49498,0 2.5592,-0.126693 1.06423,-0.152033 1.67236,-0.354742 0.60812,-0.228048 0.96287,-0.582789 0.35474,-0.354742 0.45609,-0.658806 0.10136,-0.329403 0.15203,-0.785499 -1.64701,0.126694 -2.83793,0.126694 -4.89036,0 -7.47491,-1.875062 -2.559202,-1.9004 -2.559202,-6.030604 0,-4.358252 2.559202,-7.170844 2.58455,-2.812593 7.06949,-2.812593 4.48495,0 6.9428,2.533867 2.48319,2.508529 2.48319,6.740087 v 8.083037 q 0,9.502002 -12.03587,9.502002 h -9.324631 q -0.304064,0 -0.456096,-1.064225 -0.177371,-1.089563 -0.177371,-2.128448 v -0.278725 q 0,-0.988209 0.177371,-2.052433 0.177371,-1.064224 0.456096,-1.064224 z M 108.63581,51.293739 q -1.79904,0 -2.63522,0.810837 -0.83618,0.810838 -0.83618,2.533868 0,1.241595 0.73482,1.621675 0.73483,0.38008 3.29403,0.38008 1.2416,0 2.66056,-0.152032 V 54.13167 q 0,-1.393627 -0.76016,-2.10311 -0.76016,-0.734821 -2.45785,-0.734821 z m -4.40893,-13.73356 4.35825,-4.358252 4.35826,4.358252 -4.35826,4.358251 z m -7.297534,34.232546 h -1.165578 q -4.535623,0 -6.917458,-2.711238 -2.356496,-2.736577 -2.356496,-7.804311 V 39.029822 38.016275 h 1.013546 4.20622 1.013547 v 1.013547 22.272692 q 0,2.128449 0.734821,3.015302 0.760161,0.886854 2.381836,0.886854 h 1.089562 q 0.278726,0 0.456097,1.064224 0.17737,1.064224 0.17737,2.052433 v 0.278725 q 0,1.038885 -0.17737,2.128448 -0.152032,1.064225 -0.456097,1.064225 z M 66.674972,77.2152 q 9.071244,0 9.071244,-8.235068 V 55.449281 54.435734 h 1.013547 l 4.408929,-0.02534 h 1.013547 v 1.013546 13.55619 q 0,6.892119 -4.028849,10.743597 -4.028849,3.876817 -11.427741,3.927494 l -1.799046,0.02534 -1.038885,0.02534 V 82.663015 78.228747 77.2152 h 1.013547 z M 60.847076,37.990936 h 4.20622 1.013547 v 1.013547 31.749356 1.013547 h -1.013547 -4.20622 -1.013547 V 70.753839 39.004483 37.990936 Z M 39.7653,65.20467 h 5.143751 q 2.381835,0 3.24335,-0.76016 0.861515,-0.76016 0.861515,-3.116657 v -7.44957 -1.013546 h 1.013547 4.408928 1.013547 v 1.013546 7.474909 q 0,5.067734 -2.711238,7.753633 -2.711237,2.6859 -7.854988,2.6859 H 39.7653 q -0.304064,0 -0.456096,-1.064225 -0.17737,-1.089563 -0.17737,-2.128448 v -0.278725 q 0,-0.988209 0.17737,-2.052433 0.177371,-1.064224 0.456096,-1.064224 z m 1.34295,14.975155 4.358252,-4.358252 4.358251,4.358252 -4.358251,4.358252 z m -3.978172,-8.3871 h -0.354741 v 0.988208 q 0,5.067734 -3.902156,7.753633 -3.876816,2.6859 -11.022322,2.6859 h -2.432512 q -7.804311,0 -11.8584989,-3.800801 Q 3.5309992,75.618864 3.5309992,68.270649 v -8.640487 -1.013547 h 1.0135469 l 4.4342676,0.02534 h 1.0135469 v 1.013547 8.58981 q 0,4.307574 2.2551414,6.334668 2.280481,2.052432 7.170845,2.052432 h 2.432512 q 1.925739,0 3.395382,-0.202709 1.469643,-0.177371 2.660561,-0.633467 1.190917,-0.430758 1.824384,-1.241595 0.633467,-0.810838 0.633467,-1.951078 v -0.810837 h -5.397137 q -1.165579,0 -1.799046,-0.684145 -0.633467,-0.684144 -1.064224,-2.305819 -0.58279,-2.077771 -0.38008,-2.837931 0.202709,-0.76016 1.494981,-0.76016 h 13.910931 q 0.278726,0 0.456097,1.064224 0.17737,1.064224 0.17737,2.052433 v 0.278725 q 0,1.038885 -0.17737,2.128448 -0.152033,1.064225 -0.456097,1.064225 z m 3.141996,-6.588055 q 0.152032,0 0.253386,1.064224 0.101355,1.064224 0.101355,2.052433 v 0.278725 q 0,1.038885 -0.101355,2.128448 -0.101354,1.064225 -0.253386,1.064225 h -3.775462 q -0.177371,0 -0.278726,-1.064225 -0.07602,-1.089563 -0.07602,-2.128448 v -0.278725 q 0,-0.988209 0.07602,-2.052433 0.101355,-1.064224 0.278726,-1.064224 z"
       id="text1"
       aria-label="فارابی" /><path
       style="font-size:37.6745px;font-family:Shabnam;-inkscape-font-specification:Shabnam;text-align:center;letter-spacing:0px;text-anchor:middle;fill:#463d39;stroke-width:0.392442"
       d="m 375.22797,63.616087 h 1.83958 q 2.40984,0 2.50182,-1.47166 0.0552,-0.846205 0.0552,-2.115512 0,-3.568775 1.54524,-5.334768 1.56364,-1.765992 4.50696,-1.765992 3.12728,0 4.65412,1.747597 1.54525,1.747596 1.54525,5.389955 0,3.476797 -1.58204,5.297976 -1.58203,1.82118 -4.61733,1.82118 -1.58204,0 -2.63059,-0.423102 -1.04856,-0.423103 -1.98675,-1.361286 -1.2877,1.526847 -3.95508,1.526847 h -1.87637 q -0.45989,0 -0.45989,-1.582034 v -0.202354 q 0,-1.526847 0.45989,-1.526847 z m 7.46868,-3.623963 q 0,3.991878 3.0169,3.991878 3.0169,0 3.0169,-3.991878 0,-3.789525 -3.0353,-3.789525 -2.9985,0 -2.9985,3.789525 z m -13.37371,3.623963 q -0.75423,1.545243 -2.68578,2.428239 -1.91316,0.882996 -4.93007,0.882996 h -6.69605 v -3.311235 h 6.71445 q 4.85648,0 4.85648,-2.20749 0,-0.699039 -0.45989,-1.545243 -0.4599,-0.864601 -1.3245,-1.876367 l -5.15081,-5.941828 2.22589,-2.501822 8.2045,9.639374 q 1.85797,2.152303 2.70418,3.016903 0.8462,0.864601 1.32449,1.140537 0.49669,0.275936 1.14054,0.275936 h 0.16556 q 0.4231,0 0.4231,1.526847 v 0.202354 q 0,0.809413 -0.11037,1.195724 -0.11038,0.38631 -0.31273,0.38631 h -0.29433 q -0.53348,0 -1.03016,-0.09198 -0.49669,-0.09198 -0.8646,-0.202354 -0.36792,-0.110374 -0.84621,-0.404706 -0.45989,-0.294332 -0.71743,-0.459894 -0.25754,-0.183957 -0.77263,-0.643851 -0.51508,-0.47829 -0.73583,-0.680643 -0.22074,-0.220749 -0.8278,-0.827809 z m -28.51344,8.719586 q 3.56877,0 5.44514,-1.7292 1.87637,-1.710805 1.87637,-4.985249 v -9.823331 l 3.20086,-0.0184 v 9.841727 q 0,4.727708 -2.68578,7.303113 -2.68578,2.575406 -7.7998,2.612197 l -1.32449,0.0184 v -3.219257 z m -5.90503,-5.408351 q -1.76599,0 -2.96171,-0.625455 -1.17733,-0.643851 -1.96835,-1.968346 -1.45326,2.593801 -5.05883,2.593801 -3.20086,0 -4.87487,-2.593801 -1.7292,2.593801 -6.03381,2.593801 h -1.7292 q -0.45989,0 -0.45989,-1.582034 v -0.202354 q 0,-1.526847 0.45989,-1.526847 h 1.7476 q 4.35979,0 4.35979,-3.568776 v -4.782895 h 3.14567 l 0.0184,4.819687 q 0.0184,1.765992 0.8646,2.648988 0.8646,0.882996 2.5754,0.882996 1.61883,0 2.46503,-0.882996 0.84621,-0.901392 0.84621,-2.667384 l 0.0184,-4.801291 h 3.12728 l 0.0184,4.764499 q 0.0368,3.568776 3.32963,3.568776 2.68578,0 2.68578,-3.495192 v -5.426747 h 3.21926 v 5.573913 q 0,3.20086 -1.52685,4.948457 -1.50845,1.7292 -4.26782,1.7292 z m -22.44281,0 h -0.84621 q -2.1707,0 -3.73434,-0.8646 -1.56363,-0.882996 -2.28107,-2.575405 h -3.29284 q -3.91829,0 -5.75787,-1.361286 -1.83957,-1.379681 -1.83957,-3.605567 0,-2.575405 2.00513,-4.15744 2.02354,-1.60043 6.16258,-2.373052 l 1.19572,-0.183958 -0.14716,-1.232515 2.90653,-0.459894 1.25091,10.540766 q 0.29433,1.655618 1.19572,2.317865 0.90139,0.643851 2.53862,0.643851 h 0.64385 q 0.45989,0 0.45989,1.490056 v 0.202353 q 0,1.618826 -0.45989,1.618826 z m -7.3767,-6.62247 -0.64385,-5.261185 -1.06695,0.165562 q -2.59381,0.367915 -4.12065,1.140536 -1.52685,0.772622 -1.52685,1.931554 0,1.085349 1.06695,1.563639 1.08535,0.459894 3.23766,0.459894 z m -34.16092,-15.526015 2.70418,-2.704175 2.70418,2.704175 -2.70418,2.704176 z m -7.21113,18.83725 h 5.68429 q -2.50182,-2.20749 -2.50182,-4.985249 0,-3.164069 2.04192,-5.205997 2.06033,-2.060325 5.24279,-2.060325 3.58717,0 5.83146,2.740967 l -1.34289,2.446635 q -1.89477,-1.802783 -4.39659,-1.802783 -1.7108,0 -2.94332,1.066953 -1.21412,1.066954 -1.21412,2.796155 0,1.765992 1.7476,3.145673 1.56364,1.287703 2.50182,1.287703 0.62546,0 2.46503,-0.423103 l 3.8999,-0.938183 v 3.329631 q -6.40172,1.913158 -11.31339,1.913158 h -5.70268 q -0.45989,0 -0.45989,-1.582034 v -0.202354 q 0,-1.526847 0.45989,-1.526847 z m -10.50396,9.400229 2.6306,-2.648988 2.64898,2.648988 -2.64898,2.648988 z m -6.4753,0 2.64899,-2.648988 2.63059,2.648988 -2.63059,2.648988 z m 0.8462,-9.400229 h 4.52536 q 2.31786,0 3.36642,-0.882996 1.06695,-0.882996 1.06695,-2.704176 v -4.746103 h 3.14568 v 4.746103 q 0,1.839576 0.88299,2.722572 0.883,0.8646 2.92493,0.8646 h 0.40471 q 0.4231,0 0.4231,1.526847 v 0.202354 q 0,1.582034 -0.4231,1.582034 h -0.38632 q -2.00513,0 -3.23765,-0.607059 -1.23251,-0.60706 -2.06032,-1.894763 -0.95658,1.287703 -2.42824,1.894763 -1.47166,0.607059 -3.77113,0.607059 h -4.43338 q -0.45989,0 -0.45989,-1.582034 v -0.202354 q 0,-1.526847 0.45989,-1.526847 z m -0.11038,3.311235 q -2.94332,0 -3.93669,-1.453264 v 0.110375 q 0,4.709312 -2.70417,7.284717 -2.68578,2.575405 -7.8182,2.648988 l -1.32449,0.0184 v -3.219256 h 1.2877 q 3.56878,0 5.44514,-1.729201 1.87637,-1.710805 1.87637,-4.985249 v -9.823331 h 3.21926 v 4.102252 q 0,3.734338 3.95508,3.734338 h 0.29434 q 0.4231,0 0.4231,1.526847 v 0.202354 q 0,1.582034 -0.4231,1.582034 z M 228.7426,42.38739 h 3.05369 v 24.521537 h -3.05369 z m -15.30527,21.228697 h 3.73434 q 1.93155,0 2.81455,-0.791017 0.90139,-0.791018 0.90139,-2.759363 v -5.408351 h 3.20086 v 5.426747 q 0,6.843219 -6.9352,6.843219 h -3.71594 q -0.45989,0 -0.45989,-1.582034 v -0.202354 q 0,-1.526847 0.45989,-1.526847 z m 5.1876,-15.562806 2.70418,-2.704175 2.70417,2.704175 -2.70417,2.704176 z m -13.57606,0.386311 2.63059,-2.648988 2.64899,2.648988 -2.64899,2.648988 z m -6.47531,0 2.64899,-2.648988 2.63059,2.648988 -2.63059,2.648988 z m -1.2693,15.176495 h 4.52535 q 2.31787,0 3.36642,-0.882996 1.06696,-0.882996 1.06696,-2.704176 v -4.746103 h 3.14567 v 4.746103 q 0,1.839576 0.883,2.722572 0.88299,0.8646 2.92492,0.8646 h 0.40471 q 0.4231,0 0.4231,1.526847 v 0.202354 q 0,1.582034 -0.4231,1.582034 h -0.38631 q -2.00514,0 -3.23765,-0.607059 -1.23252,-0.60706 -2.06033,-1.894763 -0.95658,1.287703 -2.42824,1.894763 -1.47166,0.607059 -3.77113,0.607059 h -4.43337 q -0.4599,0 -0.4599,-1.582034 v -0.202354 q 0,-1.526847 0.4599,-1.526847 z m -11.66291,-17.089653 2.70418,-2.704176 2.70417,2.704176 -2.70417,2.704175 z m -7.13755,17.089653 h 5.44514 q -1.94995,-1.968345 -1.94995,-4.617334 0,-2.759362 1.87637,-4.635729 1.89476,-1.894762 4.61733,-1.894762 2.72257,0 4.59894,1.876366 1.87637,1.857971 1.87637,4.63573 0,2.704175 -1.93156,4.635729 h 4.45178 q 0.4231,0 0.4231,1.526847 v 0.202354 q 0,1.582034 -0.4231,1.582034 h -2.50183 q -3.77113,0 -6.54888,-1.490056 -2.79616,1.490056 -6.56729,1.490056 h -3.36642 q -0.45989,0 -0.45989,-1.582034 v -0.202354 q 0,-1.526847 0.45989,-1.526847 z m 12.36195,-2.244282 q 1.01176,-0.974974 1.01176,-2.354656 0,-1.379681 -0.97497,-2.354656 -0.97498,-0.974975 -2.42824,-0.974975 -1.47166,0 -2.44664,0.938183 -0.97497,0.938184 -0.97497,2.391448 0,1.361286 1.01176,2.354656 1.01177,0.974975 2.40985,0.974975 1.37968,0 2.39145,-0.974975 z m -11.7365,3.973483 q 0,1.582034 -0.4231,1.582034 h -0.8462 q -5.99702,0 -5.99702,-6.898407 v -17.62313 h 3.0537 v 17.641526 q 0,3.568776 2.9985,3.568776 h 0.79102 q 0.4231,0 0.4231,1.526847 z m -28.88133,-1.729201 h 5.68429 q -2.50182,-2.20749 -2.50182,-4.985249 0,-3.164069 2.04193,-5.205997 2.06032,-2.060325 5.24279,-2.060325 3.58717,0 5.83145,2.740967 l -1.34289,2.446635 q -1.89476,-1.802783 -4.39659,-1.802783 -1.7108,0 -2.94332,1.066953 -1.21412,1.066954 -1.21412,2.796155 0,1.765992 1.7476,3.145673 1.56364,1.287703 2.50182,1.287703 0.62546,0 2.46503,-0.423103 l 3.8999,-0.938183 v 3.329631 q -6.40172,1.913158 -11.31338,1.913158 h -5.70269 q -0.45989,0 -0.45989,-1.582034 v -0.202354 q 0,-1.526847 0.45989,-1.526847 z m 0.60706,1.729201 q 0,1.582034 -0.4231,1.582034 h -0.99337 v 1.453265 q 0,3.311235 -2.55701,5.077227 -2.55701,1.765992 -7.54226,1.765992 h -1.76599 q -10.79831,0 -10.79831,-10.117663 v -6.272951 l 3.21926,0.0184 v 6.23616 q 0,6.824824 7.57905,6.824824 h 1.76599 q 1.10375,0 2.00514,-0.09198 0.91979,-0.07358 1.85797,-0.312727 0.95658,-0.239145 1.60043,-0.625456 0.64385,-0.386311 1.04856,-1.066954 0.4047,-0.662247 0.4047,-1.563638 v -1.324495 h -4.65412 q -0.91979,0 -1.36129,-1.618826 -0.45989,-1.692409 0.092,-1.692409 h 10.09927 q 0.4231,0 0.4231,1.526847 z"
       id="text4"
       aria-label="مدرسه غیرانتفاعی" /></g></svg>
