<?xml version="1.0" encoding="UTF-8" standalone="no"?>
<svg
   version="1.0"
   id="katman_1"
   x="0px"
   y="0px"
   viewBox="0 0 616.24 572.6"
   style="enable-background:new 0 0 616.24 572.6; fill: #637d97;"
   xml:space="preserve"
   sodipodi:docname="chartGray.svg"
   inkscape:version="1.3.1 (9b9bdc1480, 2023-11-25, custom)"
   xmlns:inkscape="http://www.inkscape.org/namespaces/inkscape"
   xmlns:sodipodi="http://sodipodi.sourceforge.net/DTD/sodipodi-0.dtd"
   xmlns="http://www.w3.org/2000/svg"
   xmlns:svg="http://www.w3.org/2000/svg"><defs
   id="defs3" /><sodipodi:namedview
   id="namedview3"
   pagecolor="#ffffff"
   bordercolor="#000000"
   borderopacity="0.25"
   inkscape:showpageshadow="2"
   inkscape:pageopacity="0.0"
   inkscape:pagecheckerboard="0"
   inkscape:deskcolor="#d1d1d1"
   inkscape:zoom="1.2527587"
   inkscape:cx="308.12"
   inkscape:cy="286.56756"
   inkscape:window-width="1920"
   inkscape:window-height="1011"
   inkscape:window-x="0"
   inkscape:window-y="32"
   inkscape:window-maximized="1"
   inkscape:current-layer="katman_1" />
<path
   d="M258.33,273.97c-14.78,0-26.81,8.12-26.81,18.3v255.9c0,9.49,10.76,17.42,24.56,18.2c15.95,0.88,29.06-7.93,29.06-18.79  V292.27C285.14,282.19,273.1,273.97,258.33,273.97L258.33,273.97z M112.03,383.67c-14.78,0-26.81,8.12-26.81,18.3v146.2  c0,10.08,12.04,18.3,26.81,18.3s26.81-8.22,26.81-18.3v-146.2C138.84,391.79,126.81,383.67,112.03,383.67z M404.53,347.07  c-14.78,0-26.81,8.12-26.81,18.3v182.8c0,10.08,12.04,18.3,26.81,18.3c14.78,0,26.81-8.22,26.81-18.3v-182.8  C431.34,355.29,419.3,347.07,404.53,347.07z M550.73,273.97c-14.78,0-26.81,8.12-26.81,18.3v255.9c0,10.08,12.04,18.3,26.81,18.3  c14.78,0,26.81-8.22,26.81-18.3v-255.9C577.54,282.19,565.6,273.97,550.73,273.97z"
   id="path1"
   style="fill:#637d97;fill-opacity:1" />
<path
   d="M26.21,323.68c-4.99,0-10.08-1.96-13.9-5.77c-7.63-7.63-7.63-20.06,0.1-27.69L207.15,96.16c7.54-7.54,19.67-7.63,27.4-0.2  L369.2,225.43L543.09,45.28h-80.34c-10.76,0-19.57-8.81-19.57-19.57s8.81-19.57,19.57-19.57h126.43c7.83,0,14.97,4.7,18.01,11.94  c3.03,7.24,1.57,15.56-3.91,21.24l-219.5,227.32c-7.54,7.73-19.87,8.02-27.69,0.49L221.24,137.46L40.01,318.01  C36.19,321.82,31.2,323.68,26.21,323.68z"
   id="path2"
   style="fill:#637d97;fill-opacity:1" />
<path
   d="M590.07,169.95c-10.76,0-19.57-8.71-19.57-19.57l-0.2-121.74c0-10.76,8.71-19.57,19.57-19.57  c10.76,0,19.57,8.71,19.57,19.57l0.2,121.74C609.64,161.14,600.93,169.85,590.07,169.95z"
   id="path3"
   style="fill:#637d97;fill-opacity:1" />
</svg>
