<?xml version="1.0" encoding="UTF-8" standalone="no"?>
<svg
   class="svg-icon"
   style="width: 1em; height: 1em;vertical-align: middle;fill: currentColor;overflow: hidden;"
   viewBox="0 0 1024 1024"
   version="1.1"
   id="svg1"
   sodipodi:docname="listGray.svg"
   inkscape:version="1.3.1 (9b9bdc1480, 2023-11-25, custom)"
   xmlns:inkscape="http://www.inkscape.org/namespaces/inkscape"
   xmlns:sodipodi="http://sodipodi.sourceforge.net/DTD/sodipodi-0.dtd"
   xmlns="http://www.w3.org/2000/svg"
   xmlns:svg="http://www.w3.org/2000/svg">
  <defs
     id="defs1" />
  <sodipodi:namedview
     id="namedview1"
     pagecolor="#ffffff"
     bordercolor="#000000"
     borderopacity="0.25"
     inkscape:showpageshadow="2"
     inkscape:pageopacity="0.0"
     inkscape:pagecheckerboard="0"
     inkscape:deskcolor="#d1d1d1"
     inkscape:zoom="0.75390625"
     inkscape:cx="512"
     inkscape:cy="512"
     inkscape:window-width="1920"
     inkscape:window-height="1011"
     inkscape:window-x="0"
     inkscape:window-y="32"
     inkscape:window-maximized="1"
     inkscape:current-layer="svg1" />
  <path
     d="m 859.54278,22.831243 h -63.17703 c -17.43296,0 -37.51573,15.062075 -37.51573,32.913421 0,17.572421 20.08277,27.055949 37.51573,27.055949 h 63.17703 c 37.51572,0 71.54486,30.124147 71.54486,68.476657 v 738.59952 c 0,38.21304 -33.75021,72.66056 -71.54486,72.66056 H 180.77317 c -37.51572,0 -87.583177,-34.30806 -87.583177,-72.66056 V 151.41673 c 0,-38.21304 19.943307,-72.660562 71.544857,-72.660562 h 79.21536 c 17.43295,0 28.31112,-9.483529 28.31112,-27.05595 0,-17.851347 -10.87817,-28.729513 -28.31112,-28.729513 h -79.49429 c -88.559419,0 -126.075143,56.06439 -126.075143,129.701195 v 730.51063 c 0,79.21536 46.859788,135.27977 132.769403,135.27977 h 681.69835 c 85.90961,0 132.7694,-46.44142 132.7694,-135.27977 l -10e-6,-730.65009 C 985.89685,78.895633 941.40795,22.831243 859.54278,22.831243 v 0 M 243.67128,312.21833 c 0,14.92261 14.78314,27.89273 32.07664,27.89273 h 473.75804 c 17.43295,0 32.07664,-12.69119 32.07664,-27.89273 0,-15.20154 -14.78315,-27.89273 -32.07664,-27.89273 H 276.02685 c -17.57242,0 -32.35557,12.97012 -32.35557,27.89273 v 0 m 504.5795,149.78396 H 276.02685 c -17.43296,0 -32.07664,12.6912 -32.07664,27.89273 0,14.92261 14.78314,27.89274 32.07664,27.89274 h 473.75803 c 17.43296,0 32.07664,-12.6912 32.07664,-27.89274 -1.25517,-16.31724 -16.03832,-27.89273 -33.61074,-27.89273 v 0 m 0,192.59931 H 276.02685 c -17.43296,0 -32.07664,12.69119 -32.07664,27.89273 0,15.20154 14.78314,27.89273 32.07664,27.89273 h 473.75803 c 17.43296,0 32.07664,-12.69119 32.07664,-27.89273 -1.25517,-16.31725 -16.03832,-27.89273 -33.61074,-27.89273 v 0 M 403.49663,89.215943 h 220.07365 c 25.38238,0 46.85978,-19.385448 46.85978,-41.839096 0,-22.453648 -21.4774,-41.8390965 -48.25442,-41.8390965 l -218.67901,-10e-7 c -26.77702,0 -48.25443,19.3854475 -48.25443,41.8390965 -0.27892,22.453649 21.47741,41.839097 48.25443,41.839097 v 0 m 0,0"
     id="path1"
     style="stroke-width:1.47091;fill:#637d97;fill-opacity:1" />
</svg>
