<svg xmlns="http://www.w3.org/2000/svg" xmlns:xlink="http://www.w3.org/1999/xlink"
    viewBox="0 0 300 500" width="528" height="880"
    style="width: 100%; height: 100%; transform: translate3d(0px, 0px, 0px); content-visibility: visible;"
    preserveAspectRatio="xMidYMid meet">
    <defs>
        <clipPath id="__lottie_element_2">
            <rect width="300" height="500" x="0" y="0" />
        </clipPath>
        <clipPath id="__lottie_element_4">
            <path d="M0,0 L626,0 L626,626 L0,626z" />
        </clipPath>
    </defs>
    <g clip-path="url(#__lottie_element_2)">
        <g clip-path="url(#__lottie_element_4)" style="display: block;"
            transform="matrix(0,-1,1,0,-179,615)" opacity="1">
            <g style="display: block;" transform="matrix(1,0,0,1,125.82410430908203,313)"
                opacity="0.15">
                <g opacity="1" transform="matrix(1,0,0,1,0,0)">
                    <path stroke-linecap="round" stroke-linejoin="round" fill-opacity="0"
                        stroke="rgb(8,87,160)" stroke-opacity="1" stroke-width="50"
                        d=" M92.5,-86.5 C92.5,-86.5 188.5,13 188.5,13 C188.5,13 87.5,118 87.5,118" />
                </g>
            </g>
            <g style="display: block;" transform="matrix(1,0,0,1,259.5748291015625,313)"
                opacity="0.4">
                <g opacity="1" transform="matrix(1,0,0,1,0,0)">
                    <path stroke-linecap="round" stroke-linejoin="round" fill-opacity="0"
                        stroke="rgb(8,87,160)" stroke-opacity="1" stroke-width="50"
                        d=" M92.5,-86.5 C92.5,-86.5 188.5,13 188.5,13 C188.5,13 87.5,118 87.5,118" />
                </g>
            </g>
            <g style="display: block;" transform="matrix(1,0,0,1,383.3941650390625,313)" opacity="1">
                <g opacity="1" transform="matrix(1,0,0,1,0,0)">
                    <path stroke-linecap="round" stroke-linejoin="round" fill-opacity="0"
                        stroke="rgb(8,87,160)" stroke-opacity="1" stroke-width="50"
                        d=" M92.5,-86.5 C92.5,-86.5 188.5,13 188.5,13 C188.5,13 87.5,118 87.5,118" />
                </g>
            </g>
        </g>
    </g>
</svg>